<?xml version="1.0" encoding="UTF-8" standalone="no"?>
<!DOCTYPE svg  PUBLIC '-//W3C//DTD SVG 1.1//EN'  'http://www.w3.org/Graphics/SVG/1.1/DTD/svg11.dtd'>
<svg xml:space="preserve" xmlns="http://www.w3.org/2000/svg" xmlns:xlink="http://www.w3.org/1999/xlink"><defs><path d=" M0.01745240643728351,-0.9998476951563913L0.01570716579355516,-0.8998629256407522 M0.03489949670250097,-0.9993908270190958L0.03140954703225087,-0.8994517443171862 M0.05233595624294383,-0.9986295347545738L0.04710236061864945,-0.8987665812791165 M0.0697564737441253,-0.9975640502598242L0.06278082636971277,-0.8978076452338418 M0.10452846326765346,-0.9945218953682733L0.09407561694088812,-0.895069705831446 M0.12186934340514748,-0.992546151641322L0.10968240906463272,-0.8932915364771898 M0.13917310096006544,-0.9902680687415704L0.12525579086405889,-0.8912412618674134 M0.15643446504023087,-0.9876883405951378L0.1407910185362078,-0.888919506535624 M0.1908089953765448,-0.981627183447664L0.17172809583889032,-0.8834644651028976 M0.20791169081775931,-0.9781476007338057L0.1871205217359834,-0.8803328406604252 M0.22495105434386498,-0.9743700647852352L0.2024559489094785,-0.8769330583067118 M0.24192189559966773,-0.9702957262759965L0.21772970603970096,-0.8732661536483969 M0.27563735581699916,-0.9612616959383189L0.24807362023529925,-0.865135526344487 M0.2923717047227367,-0.9563047559630355L0.26313453425046307,-0.860674280366732 M0.3090169943749474,-0.9510565162951535L0.2781152949374527,-0.8559508646656382 M0.3255681544571567,-0.9455185755993168L0.29301133901144105,-0.8509667180393852 M0.35836794954530027,-0.9335804264972017L0.32253115459077025,-0.8402223838474816 M0.374606593415912,-0.9271838545667874L0.3371459340743208,-0.8344654691101087 M0.3907311284892737,-0.9205048534524404L0.3516580156403464,-0.8284543681071963 M0.40673664307580015,-0.9135454576426009L0.36606297876822014,-0.8221909118783408 M0.4383711467890774,-0.898794046299167L0.3945340321101697,-0.8089146416692503 M0.45399049973954675,-0.8910065241883679L0.4085914497655921,-0.8019058717695311 M0.4694715627858908,-0.882947592858927L0.4225244065073017,-0.7946528335730343 M0.48480962024633706,-0.8746197071393957L0.43632865822170336,-0.7871577364254562 M0.5150380749100542,-0.8571673007021123L0.46353426741904874,-0.7714505706319011 M0.5299192642332049,-0.848048096156426L0.47692733780988444,-0.7632432865407833 M0.544639035015027,-0.838670567945424L0.49017513151352426,-0.7548035111508816 M0.5591929034707468,-0.8290375725550417L0.5032736131236721,-0.7461338152995376 M0.5877852522924731,-0.8090169943749475L0.5290067270632258,-0.7281152949374528 M0.6018150231520483,-0.7986355100472928L0.5416335208368435,-0.7187719590425635 M0.6156614753256583,-0.7880107536067219L0.5540953277930925,-0.7092096782460497 M0.6293203910498375,-0.7771459614569709L0.5663883519448538,-0.6994313653112738 M0.6560590289905073,-0.754709580222772L0.5904531260914566,-0.6792386222004948 M0.6691306063588582,-0.7431448254773942L0.6022175457229725,-0.6688303429296548 M0.6819983600624985,-0.7313537016191705L0.6137985240562487,-0.6582183314572534 M0.6946583704589973,-0.7193398003386512L0.6251925334130976,-0.6474058203047861 M0.7193398003386511,-0.6946583704589974L0.647405820304786,-0.6251925334130977 M0.7313537016191705,-0.6819983600624985L0.6582183314572534,-0.6137985240562487 M0.7431448254773942,-0.6691306063588582L0.6688303429296548,-0.6022175457229725 M0.7547095802227719,-0.6560590289905074L0.6792386222004947,-0.5904531260914566 M0.7771459614569708,-0.6293203910498375L0.6994313653112737,-0.5663883519448538 M0.7880107536067219,-0.6156614753256583L0.7092096782460497,-0.5540953277930925 M0.7986355100472928,-0.6018150231520483L0.7187719590425635,-0.5416335208368435 M0.8090169943749475,-0.5877852522924731L0.7281152949374528,-0.5290067270632258 M0.8290375725550417,-0.5591929034707468L0.7461338152995376,-0.5032736131236721 M0.8386705679454239,-0.5446390350150272L0.7548035111508815,-0.4901751315135245 M0.8480480961564261,-0.5299192642332049L0.7632432865407834,-0.47692733780988444 M0.8571673007021122,-0.5150380749100544L0.771450570631901,-0.46353426741904896 M0.8746197071393957,-0.4848096202463371L0.7871577364254562,-0.4363286582217034 M0.8829475928589269,-0.46947156278589086L0.7946528335730342,-0.4225244065073018 M0.8910065241883678,-0.45399049973954686L0.801905871769531,-0.4085914497655922 M0.898794046299167,-0.43837114678907746L0.8089146416692503,-0.39453403211016974 M0.9135454576426009,-0.4067366430758004L0.8221909118783408,-0.36606297876822036 M0.9205048534524404,-0.3907311284892737L0.8284543681071963,-0.3516580156403464 M0.9271838545667873,-0.3746065934159122L0.8344654691101085,-0.337145934074321 M0.9335804264972017,-0.35836794954530016L0.8402223838474816,-0.32253115459077014 M0.9455185755993167,-0.32556815445715676L0.8509667180393851,-0.2930113390114411 M0.9510565162951535,-0.30901699437494745L0.8559508646656382,-0.27811529493745274 M0.9563047559630354,-0.29237170472273677L0.8606742803667319,-0.2631345342504631 M0.9612616959383189,-0.27563735581699916L0.865135526344487,-0.24807362023529925 M0.9702957262759965,-0.24192189559966767L0.8732661536483969,-0.2177297060397009 M0.9743700647852352,-0.22495105434386514L0.8769330583067118,-0.20245594890947863 M0.9781476007338057,-0.20791169081775923L0.8803328406604252,-0.18712052173598331 M0.981627183447664,-0.19080899537654492L0.8834644651028976,-0.17172809583889043 M0.9876883405951378,-0.15643446504023092L0.888919506535624,-0.14079101853620785 M0.9902680687415704,-0.13917310096006547L0.8912412618674134,-0.1252557908640589 M0.992546151641322,-0.12186934340514749L0.8932915364771898,-0.10968240906463274 M0.9945218953682733,-0.10452846326765346L0.895069705831446,-0.09407561694088812 M0.9975640502598242,-0.06975647374412523L0.8978076452338418,-0.06278082636971272 M0.9986295347545738,-0.052335956242943966L0.8987665812791165,-0.04710236061864957 M0.9993908270190958,-0.03489949670250108L0.8994517443171862,-0.031409547032250976 M0.9998476951563913,-0.0174524064372836L0.8998629256407522,-0.015707165793555238 M0.9998476951563913,0.017452406437283477L0.8998629256407522,0.01570716579355513 M0.9993908270190958,0.03489949670250073L0.8994517443171862,0.03140954703225066 M0.9986295347545738,0.05233595624294384L0.8987665812791165,0.04710236061864946 M0.9975640502598242,0.06975647374412533L0.8978076452338418,0.0627808263697128 M0.9945218953682734,0.10452846326765333L0.8950697058314461,0.09407561694088801 M0.9925461516413221,0.12186934340514737L0.89329153647719,0.10968240906463263 M0.9902680687415704,0.13917310096006513L0.8912412618674134,0.12525579086405864 M0.9876883405951377,0.15643446504023104L0.8889195065356239,0.14079101853620793 M0.981627183447664,0.1908089953765448L0.8834644651028976,0.17172809583889032 M0.9781476007338057,0.20791169081775912L0.8803328406604252,0.1871205217359832 M0.9743700647852352,0.2249510543438648L0.8769330583067118,0.20245594890947832 M0.9702957262759965,0.24192189559966756L0.8732661536483969,0.21772970603970082 M0.9612616959383189,0.27563735581699905L0.865135526344487,0.24807362023529916 M0.9563047559630355,0.29237170472273666L0.860674280366732,0.263134534250463 M0.9510565162951536,0.30901699437494734L0.8559508646656383,0.27811529493745263 M0.9455185755993168,0.3255681544571564L0.8509667180393852,0.2930113390114408 M0.9335804264972017,0.35836794954530027L0.8402223838474816,0.32253115459077025 M0.9271838545667874,0.37460659341591207L0.8344654691101087,0.33714593407432086 M0.9205048534524404,0.3907311284892736L0.8284543681071963,0.35165801564034627 M0.913545457642601,0.4067366430758001L0.8221909118783409,0.3660629787682201 M0.8987940462991669,0.4383711467890775L0.8089146416692502,0.3945340321101698 M0.8910065241883679,0.45399049973954675L0.8019058717695311,0.4085914497655921 M0.8829475928589271,0.46947156278589053L0.7946528335730344,0.4225244065073015 M0.8746197071393959,0.484809620246337L0.7871577364254563,0.4363286582217033 M0.8571673007021123,0.5150380749100543L0.7714505706319011,0.46353426741904885 M0.8480480961564261,0.5299192642332048L0.7632432865407834,0.47692733780988433 M0.838670567945424,0.5446390350150271L0.7548035111508816,0.4901751315135244 M0.8290375725550417,0.5591929034707467L0.7461338152995376,0.503273613123672 M0.8090169943749475,0.587785252292473L0.7281152949374528,0.5290067270632257 M0.7986355100472927,0.6018150231520484L0.7187719590425634,0.5416335208368436 M0.788010753606722,0.6156614753256583L0.7092096782460499,0.5540953277930925 M0.777145961456971,0.6293203910498373L0.6994313653112739,0.5663883519448536 M0.7547095802227721,0.6560590289905072L0.6792386222004949,0.5904531260914565 M0.7431448254773945,0.6691306063588579L0.668830342929655,0.6022175457229721 M0.7313537016191706,0.6819983600624984L0.6582183314572535,0.6137985240562486 M0.7193398003386511,0.6946583704589974L0.647405820304786,0.6251925334130977 M0.6946583704589975,0.719339800338651L0.6251925334130978,0.6474058203047859 M0.6819983600624986,0.7313537016191705L0.6137985240562488,0.6582183314572534 M0.669130606358858,0.7431448254773944L0.6022175457229723,0.6688303429296549 M0.6560590289905073,0.754709580222772L0.5904531260914566,0.6792386222004948 M0.6293203910498374,0.7771459614569709L0.5663883519448537,0.6994313653112738 M0.6156614753256584,0.7880107536067219L0.5540953277930926,0.7092096782460497 M0.6018150231520486,0.7986355100472926L0.5416335208368438,0.7187719590425634 M0.5877852522924732,0.8090169943749473L0.5290067270632259,0.7281152949374526 M0.5591929034707469,0.8290375725550416L0.5032736131236722,0.7461338152995375 M0.5446390350150273,0.8386705679454239L0.4901751315135246,0.7548035111508815 M0.5299192642332049,0.848048096156426L0.47692733780988444,0.7632432865407833 M0.5150380749100544,0.8571673007021122L0.46353426741904896,0.771450570631901 M0.48480962024633717,0.8746197071393957L0.43632865822170347,0.7871577364254562 M0.4694715627858907,0.882947592858927L0.4225244065073016,0.7946528335730343 M0.45399049973954686,0.8910065241883678L0.4085914497655922,0.801905871769531 M0.4383711467890777,0.8987940462991668L0.3945340321101699,0.8089146416692502 M0.40673664307580004,0.913545457642601L0.36606297876822,0.8221909118783409 M0.39073112848927377,0.9205048534524404L0.3516580156403464,0.8284543681071963 M0.37460659341591224,0.9271838545667873L0.33714593407432103,0.8344654691101085 M0.35836794954530066,0.9335804264972016L0.3225311545907706,0.8402223838474815 M0.3255681544571566,0.9455185755993168L0.29301133901144094,0.8509667180393852 M0.3090169943749475,0.9510565162951535L0.27811529493745274,0.8559508646656382 M0.29237170472273705,0.9563047559630354L0.26313453425046335,0.8606742803667319 M0.2756373558169992,0.9612616959383189L0.2480736202352993,0.865135526344487 M0.24192189559966773,0.9702957262759965L0.21772970603970096,0.8732661536483969 M0.2249510543438652,0.9743700647852351L0.20245594890947868,0.8769330583067116 M0.20791169081775931,0.9781476007338057L0.1871205217359834,0.8803328406604252 M0.19080899537654497,0.981627183447664L0.17172809583889048,0.8834644651028976 M0.15643446504023098,0.9876883405951377L0.14079101853620787,0.8889195065356239 M0.13917310096006533,0.9902680687415704L0.1252557908640588,0.8912412618674134 M0.12186934340514755,0.992546151641322L0.1096824090646328,0.8932915364771898 M0.10452846326765373,0.9945218953682733L0.09407561694088837,0.895069705831446 M0.06975647374412552,0.9975640502598242L0.06278082636971298,0.8978076452338418 M0.05233595624294425,0.9986295347545738L0.04710236061864983,0.8987665812791165 M0.03489949670250114,0.9993908270190958L0.03140954703225103,0.8994517443171862 M0.01745240643728344,0.9998476951563913L0.015707165793555095,0.8998629256407522 M-0.017452406437283192,0.9998476951563913L-0.015707165793554873,0.8998629256407522 M-0.0348994967025009,0.9993908270190958L-0.03140954703225081,0.8994517443171862 M-0.052335956242943564,0.9986295347545738L-0.04710236061864921,0.8987665812791165 M-0.06975647374412483,0.9975640502598243L-0.06278082636971236,0.8978076452338419 M-0.1045284632676535,0.9945218953682733L-0.09407561694088815,0.895069705831446 M-0.12186934340514775,0.992546151641322L-0.10968240906463297,0.8932915364771898 M-0.13917310096006552,0.9902680687415703L-0.12525579086405897,0.8912412618674133 M-0.15643446504023073,0.9876883405951378L-0.14079101853620765,0.888919506535624 M-0.19080899537654472,0.981627183447664L-0.17172809583889026,0.8834644651028976 M-0.20791169081775907,0.9781476007338057L-0.18712052173598318,0.8803328406604252 M-0.22495105434386498,0.9743700647852352L-0.2024559489094785,0.8769330583067118 M-0.2419218955996675,0.9702957262759966L-0.21772970603970077,0.873266153648397 M-0.2756373558169986,0.961261695938319L-0.24807362023529875,0.8651355263444871 M-0.29237170472273677,0.9563047559630354L-0.2631345342504631,0.8606742803667319 M-0.30901699437494773,0.9510565162951535L-0.27811529493745296,0.8559508646656382 M-0.32556815445715676,0.9455185755993167L-0.2930113390114411,0.8509667180393851 M-0.35836794954530043,0.9335804264972017L-0.3225311545907704,0.8402223838474816 M-0.374606593415912,0.9271838545667874L-0.3371459340743208,0.8344654691101087 M-0.39073112848927355,0.9205048534524404L-0.3516580156403462,0.8284543681071963 M-0.4067366430757998,0.9135454576426011L-0.36606297876821986,0.822190911878341 M-0.43837114678907707,0.8987940462991671L-0.39453403211016935,0.8089146416692504 M-0.45399049973954625,0.8910065241883681L-0.40859144976559164,0.8019058717695313 M-0.4694715627858905,0.8829475928589271L-0.42252440650730144,0.7946528335730344 M-0.48480962024633734,0.8746197071393956L-0.43632865822170364,0.7871577364254561 M-0.5150380749100542,0.8571673007021123L-0.46353426741904874,0.7714505706319011 M-0.5299192642332048,0.8480480961564261L-0.47692733780988433,0.7632432865407834 M-0.5446390350150271,0.838670567945424L-0.4901751315135244,0.7548035111508816 M-0.5591929034707467,0.8290375725550418L-0.503273613123672,0.7461338152995377 M-0.587785252292473,0.8090169943749475L-0.5290067270632257,0.7281152949374528 M-0.601815023152048,0.798635510047293L-0.5416335208368432,0.7187719590425637 M-0.6156614753256578,0.7880107536067222L-0.5540953277930921,0.7092096782460501 M-0.6293203910498373,0.7771459614569711L-0.5663883519448536,0.699431365311274 M-0.6560590289905074,0.7547095802227719L-0.5904531260914566,0.6792386222004947 M-0.6691306063588582,0.7431448254773942L-0.6022175457229725,0.6688303429296548 M-0.6819983600624984,0.7313537016191706L-0.6137985240562486,0.6582183314572535 M-0.6946583704589974,0.7193398003386511L-0.6251925334130977,0.647405820304786 M-0.7193398003386509,0.6946583704589975L-0.6474058203047858,0.6251925334130978 M-0.7313537016191705,0.6819983600624986L-0.6582183314572534,0.6137985240562488 M-0.743144825477394,0.6691306063588585L-0.6688303429296546,0.6022175457229726 M-0.7547095802227717,0.6560590289905077L-0.6792386222004946,0.590453126091457 M-0.7771459614569711,0.6293203910498371L-0.699431365311274,0.5663883519448534 M-0.7880107536067221,0.6156614753256581L-0.70920967824605,0.5540953277930922 M-0.7986355100472928,0.6018150231520483L-0.7187719590425635,0.5416335208368435 M-0.8090169943749473,0.5877852522924732L-0.7281152949374526,0.5290067270632259 M-0.8290375725550414,0.5591929034707472L-0.7461338152995373,0.5032736131236726 M-0.838670567945424,0.544639035015027L-0.7548035111508816,0.49017513151352426 M-0.848048096156426,0.529919264233205L-0.7632432865407833,0.4769273378098845 M-0.8571673007021121,0.5150380749100545L-0.7714505706319009,0.4635342674190491 M-0.8746197071393955,0.4848096202463376L-0.787157736425456,0.43632865822170386 M-0.882947592858927,0.46947156278589075L-0.7946528335730343,0.42252440650730166 M-0.8910065241883678,0.4539904997395469L-0.801905871769531,0.40859144976559225 M-0.8987940462991668,0.43837114678907774L-0.8089146416692502,0.39453403211016996 M-0.913545457642601,0.4067366430758001L-0.8221909118783409,0.3660629787682201 M-0.9205048534524403,0.3907311284892738L-0.8284543681071963,0.35165801564034643 M-0.9271838545667873,0.3746065934159123L-0.8344654691101085,0.3371459340743211 M-0.9335804264972016,0.3583679495453007L-0.8402223838474815,0.32253115459077064 M-0.9455185755993168,0.32556815445715664L-0.8509667180393852,0.293011339011441 M-0.9510565162951535,0.30901699437494756L-0.8559508646656382,0.2781152949374528 M-0.9563047559630353,0.2923717047227371L-0.8606742803667318,0.2631345342504634 M-0.9612616959383189,0.2756373558169989L-0.865135526344487,0.248073620235299 M-0.9702957262759965,0.24192189559966779L-0.8732661536483969,0.21772970603970102 M-0.9743700647852351,0.22495105434386525L-0.8769330583067116,0.20245594890947874 M-0.9781476007338056,0.2079116908177598L-0.880332840660425,0.1871205217359838 M-0.981627183447664,0.1908089953765446L-0.8834644651028976,0.17172809583889015 M-0.9876883405951377,0.15643446504023104L-0.8889195065356239,0.14079101853620793 M-0.9902680687415703,0.13917310096006583L-0.8912412618674133,0.12525579086405925 M-0.992546151641322,0.12186934340514805L-0.8932915364771898,0.10968240906463324 M-0.9945218953682733,0.10452846326765423L-0.895069705831446,0.09407561694088881 M-0.9975640502598242,0.06975647374412558L-0.8978076452338418,0.06278082636971302 M-0.9986295347545739,0.052335956242943425L-0.8987665812791166,0.047102360618649086 M-0.9993908270190958,0.03489949670250076L-0.8994517443171862,0.031409547032250684 M-0.9998476951563913,0.017452406437283498L-0.8998629256407522,0.015707165793555147 M-0.9998476951563913,-0.01745240643728313L-0.8998629256407522,-0.015707165793554818 M-0.9993908270190958,-0.03489949670250039L-0.8994517443171862,-0.03140954703225036 M-0.9986295347545739,-0.05233595624294306L-0.8987665812791166,-0.04710236061864875 M-0.9975640502598243,-0.06975647374412522L-0.8978076452338419,-0.0627808263697127 M-0.9945218953682733,-0.10452846326765387L-0.895069705831446,-0.09407561694088849 M-0.992546151641322,-0.12186934340514768L-0.8932915364771898,-0.10968240906463292 M-0.9902680687415704,-0.13917310096006547L-0.8912412618674134,-0.1252557908640589 M-0.9876883405951378,-0.15643446504023067L-0.888919506535624,-0.14079101853620762 M-0.9816271834476641,-0.19080899537654425L-0.8834644651028977,-0.17172809583888982 M-0.9781476007338056,-0.20791169081775943L-0.880332840660425,-0.18712052173598348 M-0.9743700647852352,-0.22495105434386492L-0.8769330583067118,-0.20245594890947843 M-0.9702957262759966,-0.24192189559966745L-0.873266153648397,-0.2177297060397007 M-0.961261695938319,-0.2756373558169985L-0.8651355263444871,-0.24807362023529866 M-0.9563047559630354,-0.2923717047227367L-0.8606742803667319,-0.26313453425046307 M-0.9510565162951536,-0.30901699437494723L-0.8559508646656383,-0.2781152949374525 M-0.945518575599317,-0.3255681544571563L-0.8509667180393853,-0.29301133901144066 M-0.9335804264972017,-0.3583679495453004L-0.8402223838474816,-0.32253115459077036 M-0.9271838545667874,-0.37460659341591196L-0.8344654691101087,-0.33714593407432075 M-0.9205048534524405,-0.3907311284892735L-0.8284543681071964,-0.35165801564034616 M-0.9135454576426011,-0.40673664307579976L-0.822190911878341,-0.3660629787682198 M-0.898794046299167,-0.4383711467890774L-0.8089146416692503,-0.3945340321101697 M-0.891006524188368,-0.45399049973954664L-0.8019058717695312,-0.408591449765592 M-0.8829475928589271,-0.4694715627858904L-0.7946528335730344,-0.4225244065073014 M-0.8746197071393956,-0.4848096202463373L-0.7871577364254561,-0.4363286582217036 M-0.8571673007021123,-0.5150380749100542L-0.7714505706319011,-0.46353426741904874 M-0.8480480961564261,-0.5299192642332047L-0.7632432865407834,-0.4769273378098842 M-0.8386705679454243,-0.5446390350150266L-0.7548035111508818,-0.490175131513524 M-0.8290375725550416,-0.559192903470747L-0.7461338152995375,-0.5032736131236724 M-0.8090169943749476,-0.5877852522924729L-0.7281152949374529,-0.5290067270632256 M-0.798635510047293,-0.6018150231520479L-0.7187719590425637,-0.5416335208368431 M-0.7880107536067223,-0.6156614753256578L-0.7092096782460501,-0.5540953277930921 M-0.7771459614569713,-0.6293203910498368L-0.6994313653112743,-0.5663883519448532 M-0.7547095802227721,-0.656059028990507L-0.6792386222004949,-0.5904531260914564 M-0.743144825477394,-0.6691306063588585L-0.6688303429296546,-0.6022175457229726 M-0.7313537016191703,-0.6819983600624986L-0.6582183314572533,-0.6137985240562488 M-0.7193398003386511,-0.6946583704589973L-0.647405820304786,-0.6251925334130976 M-0.6946583704589976,-0.7193398003386509L-0.6251925334130979,-0.6474058203047858 M-0.6819983600624989,-0.7313537016191701L-0.613798524056249,-0.6582183314572532 M-0.6691306063588588,-0.7431448254773937L-0.6022175457229729,-0.6688303429296544 M-0.6560590289905074,-0.7547095802227719L-0.5904531260914566,-0.6792386222004947 M-0.6293203910498372,-0.7771459614569711L-0.5663883519448535,-0.699431365311274 M-0.6156614753256582,-0.788010753606722L-0.5540953277930923,-0.7092096782460499 M-0.6018150231520483,-0.7986355100472928L-0.5416335208368435,-0.7187719590425635 M-0.5877852522924734,-0.8090169943749473L-0.529006727063226,-0.7281152949374526 M-0.5591929034707473,-0.8290375725550414L-0.5032736131236726,-0.7461338152995373 M-0.544639035015027,-0.838670567945424L-0.49017513151352426,-0.7548035111508816 M-0.529919264233205,-0.8480480961564258L-0.4769273378098845,-0.7632432865407833 M-0.5150380749100545,-0.8571673007021121L-0.4635342674190491,-0.7714505706319009 M-0.48480962024633767,-0.8746197071393954L-0.4363286582217039,-0.7871577364254558 M-0.4694715627858908,-0.882947592858927L-0.4225244065073017,-0.7946528335730343 M-0.45399049973954697,-0.8910065241883678L-0.4085914497655923,-0.801905871769531 M-0.4383711467890778,-0.8987940462991668L-0.39453403211017,-0.8089146416692502 M-0.40673664307580015,-0.913545457642601L-0.36606297876822014,-0.8221909118783409 M-0.3907311284892739,-0.9205048534524403L-0.3516580156403465,-0.8284543681071963 M-0.37460659341591235,-0.9271838545667873L-0.33714593407432114,-0.8344654691101085 M-0.35836794954530077,-0.9335804264972015L-0.3225311545907707,-0.8402223838474814 M-0.3255681544571567,-0.9455185755993168L-0.29301133901144105,-0.8509667180393852 M-0.3090169943749476,-0.9510565162951535L-0.27811529493745285,-0.8559508646656382 M-0.29237170472273716,-0.9563047559630353L-0.26313453425046346,-0.8606742803667318 M-0.27563735581699894,-0.9612616959383189L-0.24807362023529905,-0.865135526344487 M-0.24192189559966787,-0.9702957262759965L-0.2177297060397011,-0.8732661536483969 M-0.22495105434386534,-0.9743700647852351L-0.2024559489094788,-0.8769330583067116 M-0.20791169081775987,-0.9781476007338056L-0.1871205217359839,-0.880332840660425 M-0.19080899537654467,-0.981627183447664L-0.1717280958388902,-0.8834644651028976 M-0.15643446504023112,-0.9876883405951377L-0.140791018536208,-0.8889195065356239 M-0.13917310096006588,-0.9902680687415703L-0.1252557908640593,-0.8912412618674133 M-0.12186934340514811,-0.992546151641322L-0.10968240906463331,-0.8932915364771898 M-0.1045284632676543,-0.9945218953682733L-0.09407561694088888,-0.895069705831446 M-0.06975647374412564,-0.9975640502598242L-0.06278082636971308,-0.8978076452338418 M-0.05233595624294348,-0.9986295347545739L-0.047102360618649135,-0.8987665812791166 M-0.034899496702500823,-0.9993908270190958L-0.03140954703225074,-0.8994517443171862 M-0.01745240643728356,-0.9998476951563913L-0.015707165793555206,-0.8998629256407522" id="compass-scale-1"></path><path d=" M0.08715574274765817,-0.9961946980917455L0.07408238133550944,-0.8467654933779837 M0.25881904510252074,-0.9659258262890683L0.21999618833714263,-0.8210369523457081 M0.42261826174069944,-0.9063077870366499L0.3592255224795945,-0.7703616189811524 M0.573576436351046,-0.8191520442889918L0.48753997089838913,-0.696279237645643 M0.7071067811865475,-0.7071067811865476L0.6010407640085653,-0.6010407640085654 M0.8191520442889918,-0.573576436351046L0.696279237645643,-0.48753997089838913 M0.9063077870366499,-0.42261826174069944L0.7703616189811524,-0.3592255224795945 M0.9659258262890683,-0.25881904510252074L0.8210369523457081,-0.21999618833714263 M0.9961946980917455,-0.08715574274765836L0.8467654933779837,-0.07408238133550961 M0.9961946980917455,0.08715574274765824L0.8467654933779837,0.0740823813355095 M0.9659258262890683,0.25881904510252085L0.8210369523457081,0.2199961883371427 M0.90630778703665,0.42261826174069933L0.7703616189811525,0.35922552247959444 M0.819152044288992,0.5735764363510458L0.6962792376456431,0.48753997089838896 M0.7071067811865476,0.7071067811865475L0.6010407640085654,0.6010407640085653 M0.5735764363510459,0.8191520442889919L0.487539970898389,0.6962792376456431 M0.4226182617406995,0.9063077870366499L0.35922552247959455,0.7703616189811524 M0.258819045102521,0.9659258262890682L0.21999618833714285,0.821036952345708 M0.0871557427476582,0.9961946980917455L0.07408238133550946,0.8467654933779837 M-0.08715574274765794,0.9961946980917455L-0.07408238133550925,0.8467654933779837 M-0.25881904510252035,0.9659258262890684L-0.2199961883371423,0.8210369523457082 M-0.4226182617406993,0.90630778703665L-0.3592255224795944,0.7703616189811525 M-0.5735764363510458,0.819152044288992L-0.48753997089838896,0.6962792376456431 M-0.7071067811865475,0.7071067811865477L-0.6010407640085653,0.6010407640085655 M-0.8191520442889916,0.5735764363510464L-0.6962792376456428,0.4875399708983894 M-0.90630778703665,0.42261826174069916L-0.7703616189811525,0.3592255224795943 M-0.9659258262890683,0.25881904510252063L-0.8210369523457081,0.21999618833714252 M-0.9961946980917455,0.08715574274765825L-0.8467654933779837,0.07408238133550951 M-0.9961946980917455,-0.08715574274765789L-0.8467654933779837,-0.0740823813355092 M-0.9659258262890684,-0.2588190451025203L-0.8210369523457082,-0.21999618833714224 M-0.9063077870366503,-0.42261826174069883L-0.7703616189811527,-0.359225522479594 M-0.8191520442889918,-0.573576436351046L-0.696279237645643,-0.48753997089838913 M-0.7071067811865477,-0.7071067811865474L-0.6010407640085655,-0.6010407640085652 M-0.5735764363510465,-0.8191520442889916L-0.4875399708983895,-0.6962792376456428 M-0.4226182617406992,-0.90630778703665L-0.35922552247959433,-0.7703616189811525 M-0.2588190451025207,-0.9659258262890683L-0.21999618833714257,-0.8210369523457081 M-0.08715574274765832,-0.9961946980917455L-0.07408238133550957,-0.8467654933779837" id="compass-scale-5"></path><path d="M0.0,-1.0L0.0,-0.8 M0.17364817766693033,-0.984807753012208L0.13891854213354426,-0.7878462024097664 M0.3420201433256687,-0.9396926207859084L0.273616114660535,-0.7517540966287268 M0.49999999999999994,-0.8660254037844387L0.39999999999999997,-0.692820323027551 M0.6427876096865393,-0.766044443118978L0.5142300877492314,-0.6128355544951825 M0.766044443118978,-0.6427876096865394L0.6128355544951825,-0.5142300877492315 M0.8660254037844386,-0.5000000000000001L0.6928203230275509,-0.40000000000000013 M0.9396926207859083,-0.3420201433256688L0.7517540966287267,-0.2736161146605351 M0.984807753012208,-0.17364817766693041L0.7878462024097664,-0.13891854213354435 M1.0,-6.123233995736766E-17L0.8,-4.898587196589413E-17 M0.984807753012208,0.1736481776669303L0.7878462024097664,0.13891854213354424 M0.9396926207859084,0.3420201433256687L0.7517540966287268,0.273616114660535 M0.8660254037844387,0.4999999999999998L0.692820323027551,0.39999999999999986 M0.766044443118978,0.6427876096865394L0.6128355544951825,0.5142300877492315 M0.6427876096865395,0.7660444431189779L0.5142300877492316,0.6128355544951823 M0.49999999999999994,0.8660254037844387L0.39999999999999997,0.692820323027551 M0.3420201433256689,0.9396926207859083L0.2736161146605351,0.7517540966287267 M0.17364817766693072,0.984807753012208L0.13891854213354457,0.7878462024097664 M1.2246467991473532E-16,1.0L9.797174393178826E-17,0.8 M-0.17364817766693047,0.984807753012208L-0.13891854213354438,0.7878462024097664 M-0.34202014332566866,0.9396926207859084L-0.2736161146605349,0.7517540966287268 M-0.5000000000000001,0.8660254037844386L-0.40000000000000013,0.6928203230275509 M-0.6427876096865393,0.7660444431189781L-0.5142300877492314,0.6128355544951826 M-0.7660444431189779,0.6427876096865395L-0.6128355544951823,0.5142300877492316 M-0.8660254037844385,0.5000000000000004L-0.6928203230275508,0.40000000000000036 M-0.9396926207859082,0.3420201433256694L-0.7517540966287266,0.27361611466053554 M-0.984807753012208,0.17364817766693033L-0.7878462024097664,0.13891854213354426 M-1.0,1.8369701987210297E-16L-0.8,1.4695761589768238E-16 M-0.9848077530122081,-0.17364817766692997L-0.7878462024097665,-0.138918542133544 M-0.9396926207859083,-0.342020143325669L-0.7517540966287267,-0.2736161146605352 M-0.8660254037844386,-0.5000000000000001L-0.6928203230275509,-0.40000000000000013 M-0.7660444431189781,-0.6427876096865393L-0.6128355544951826,-0.5142300877492314 M-0.6427876096865396,-0.7660444431189778L-0.5142300877492317,-0.6128355544951822 M-0.5000000000000004,-0.8660254037844384L-0.40000000000000036,-0.6928203230275507 M-0.34202014332566943,-0.9396926207859081L-0.27361611466053554,-0.7517540966287265 M-0.1736481776669304,-0.984807753012208L-0.13891854213354432,-0.7878462024097664" id="compass-scale-10"></path></defs><g id="compass-scale"><text rotate="0" text-anchor="middle" transform="rotate(0)" x="0.0" y="-1.0">0</text><text rotate="357 3" text-anchor="middle" transform="rotate(30)" x="-0.05233595624294348 0.05233595624294383" y="-0.9986295347545739 -0.9986295347545738">30</text><text rotate="357 3" text-anchor="middle" transform="rotate(60)" x="-0.05233595624294348 0.05233595624294383" y="-0.9986295347545739 -0.9986295347545738">60</text><text rotate="357 3" text-anchor="middle" transform="rotate(90)" x="-0.05233595624294348 0.05233595624294383" y="-0.9986295347545739 -0.9986295347545738">90</text><text rotate="355 0 5" text-anchor="middle" transform="rotate(120)" x="-0.08715574274765832 0.0 0.08715574274765817" y="-0.9961946980917455 -1.0 -0.9961946980917455">120</text><text rotate="355 0 5" text-anchor="middle" transform="rotate(150)" x="-0.08715574274765832 0.0 0.08715574274765817" y="-0.9961946980917455 -1.0 -0.9961946980917455">150</text><text rotate="355 0 5" text-anchor="middle" transform="rotate(180)" x="-0.08715574274765832 0.0 0.08715574274765817" y="-0.9961946980917455 -1.0 -0.9961946980917455">180</text><text rotate="355 0 5" text-anchor="middle" transform="rotate(210)" x="-0.08715574274765832 0.0 0.08715574274765817" y="-0.9961946980917455 -1.0 -0.9961946980917455">210</text><text rotate="355 0 5" text-anchor="middle" transform="rotate(240)" x="-0.08715574274765832 0.0 0.08715574274765817" y="-0.9961946980917455 -1.0 -0.9961946980917455">240</text><text rotate="355 0 5" text-anchor="middle" transform="rotate(270)" x="-0.08715574274765832 0.0 0.08715574274765817" y="-0.9961946980917455 -1.0 -0.9961946980917455">270</text><text rotate="355 0 5" text-anchor="middle" transform="rotate(300)" x="-0.08715574274765832 0.0 0.08715574274765817" y="-0.9961946980917455 -1.0 -0.9961946980917455">300</text><text rotate="355 0 5" text-anchor="middle" transform="rotate(330)" x="-0.08715574274765832 0.0 0.08715574274765817" y="-0.9961946980917455 -1.0 -0.9961946980917455">330</text></g><g id="vertical-scale"><text text-anchor="middle"><tspan y="-100">100</tspan><tspan y="-99">99</tspan><tspan y="-98">98</tspan><tspan y="-97">97</tspan><tspan y="-96">96</tspan><tspan y="-95">95</tspan><tspan y="-94">94</tspan><tspan y="-93">93</tspan><tspan y="-92">92</tspan><tspan y="-91">91</tspan><tspan y="-90">90</tspan><tspan y="-89">89</tspan><tspan y="-88">88</tspan><tspan y="-87">87</tspan><tspan y="-86">86</tspan><tspan y="-85">85</tspan><tspan y="-84">84</tspan><tspan y="-83">83</tspan><tspan y="-82">82</tspan><tspan y="-81">81</tspan><tspan y="-80">80</tspan><tspan y="-79">79</tspan><tspan y="-78">78</tspan><tspan y="-77">77</tspan><tspan y="-76">76</tspan><tspan y="-75">75</tspan><tspan y="-74">74</tspan><tspan y="-73">73</tspan><tspan y="-72">72</tspan><tspan y="-71">71</tspan><tspan y="-70">70</tspan><tspan y="-69">69</tspan><tspan y="-68">68</tspan><tspan y="-67">67</tspan><tspan y="-66">66</tspan><tspan y="-65">65</tspan><tspan y="-64">64</tspan><tspan y="-63">63</tspan><tspan y="-62">62</tspan><tspan y="-61">61</tspan><tspan y="-60">60</tspan><tspan y="-59">59</tspan><tspan y="-58">58</tspan><tspan y="-57">57</tspan><tspan y="-56">56</tspan><tspan y="-55">55</tspan><tspan y="-54">54</tspan><tspan y="-53">53</tspan><tspan y="-52">52</tspan><tspan y="-51">51</tspan><tspan y="-50">50</tspan><tspan y="-49">49</tspan><tspan y="-48">48</tspan><tspan y="-47">47</tspan><tspan y="-46">46</tspan><tspan y="-45">45</tspan><tspan y="-44">44</tspan><tspan y="-43">43</tspan><tspan y="-42">42</tspan><tspan y="-41">41</tspan><tspan y="-40">40</tspan><tspan y="-39">39</tspan><tspan y="-38">38</tspan><tspan y="-37">37</tspan><tspan y="-36">36</tspan><tspan y="-35">35</tspan><tspan y="-34">34</tspan><tspan y="-33">33</tspan><tspan y="-32">32</tspan><tspan y="-31">31</tspan><tspan y="-30">30</tspan><tspan y="-29">29</tspan><tspan y="-28">28</tspan><tspan y="-27">27</tspan><tspan y="-26">26</tspan><tspan y="-25">25</tspan><tspan y="-24">24</tspan><tspan y="-23">23</tspan><tspan y="-22">22</tspan><tspan y="-21">21</tspan><tspan y="-20">20</tspan><tspan y="-19">19</tspan><tspan y="-18">18</tspan><tspan y="-17">17</tspan><tspan y="-16">16</tspan><tspan y="-15">15</tspan><tspan y="-14">14</tspan><tspan y="-13">13</tspan><tspan y="-12">12</tspan><tspan y="-11">11</tspan><tspan y="-10">10</tspan><tspan y="-9">9</tspan><tspan y="-8">8</tspan><tspan y="-7">7</tspan><tspan y="-6">6</tspan><tspan y="-5">5</tspan><tspan y="-4">4</tspan><tspan y="-3">3</tspan><tspan y="-2">2</tspan><tspan y="-1">1</tspan><tspan y="0">0</tspan><tspan y="1">-1</tspan><tspan y="2">-2</tspan><tspan y="3">-3</tspan><tspan y="4">-4</tspan><tspan y="5">-5</tspan><tspan y="6">-6</tspan><tspan y="7">-7</tspan><tspan y="8">-8</tspan><tspan y="9">-9</tspan><tspan y="10">-10</tspan><tspan y="11">-11</tspan><tspan y="12">-12</tspan><tspan y="13">-13</tspan><tspan y="14">-14</tspan><tspan y="15">-15</tspan><tspan y="16">-16</tspan><tspan y="17">-17</tspan><tspan y="18">-18</tspan><tspan y="19">-19</tspan><tspan y="20">-20</tspan><tspan y="21">-21</tspan><tspan y="22">-22</tspan><tspan y="23">-23</tspan><tspan y="24">-24</tspan><tspan y="25">-25</tspan><tspan y="26">-26</tspan><tspan y="27">-27</tspan><tspan y="28">-28</tspan><tspan y="29">-29</tspan><tspan y="30">-30</tspan><tspan y="31">-31</tspan><tspan y="32">-32</tspan><tspan y="33">-33</tspan><tspan y="34">-34</tspan><tspan y="35">-35</tspan><tspan y="36">-36</tspan><tspan y="37">-37</tspan><tspan y="38">-38</tspan><tspan y="39">-39</tspan><tspan y="40">-40</tspan><tspan y="41">-41</tspan><tspan y="42">-42</tspan><tspan y="43">-43</tspan><tspan y="44">-44</tspan><tspan y="45">-45</tspan><tspan y="46">-46</tspan><tspan y="47">-47</tspan><tspan y="48">-48</tspan><tspan y="49">-49</tspan><tspan y="50">-50</tspan><tspan y="51">-51</tspan><tspan y="52">-52</tspan><tspan y="53">-53</tspan><tspan y="54">-54</tspan><tspan y="55">-55</tspan><tspan y="56">-56</tspan><tspan y="57">-57</tspan><tspan y="58">-58</tspan><tspan y="59">-59</tspan><tspan y="60">-60</tspan><tspan y="61">-61</tspan><tspan y="62">-62</tspan><tspan y="63">-63</tspan><tspan y="64">-64</tspan><tspan y="65">-65</tspan><tspan y="66">-66</tspan><tspan y="67">-67</tspan><tspan y="68">-68</tspan><tspan y="69">-69</tspan><tspan y="70">-70</tspan><tspan y="71">-71</tspan><tspan y="72">-72</tspan><tspan y="73">-73</tspan><tspan y="74">-74</tspan><tspan y="75">-75</tspan><tspan y="76">-76</tspan><tspan y="77">-77</tspan><tspan y="78">-78</tspan><tspan y="79">-79</tspan><tspan y="80">-80</tspan><tspan y="81">-81</tspan><tspan y="82">-82</tspan><tspan y="83">-83</tspan><tspan y="84">-84</tspan><tspan y="85">-85</tspan><tspan y="86">-86</tspan><tspan y="87">-87</tspan><tspan y="88">-88</tspan><tspan y="89">-89</tspan><tspan y="90">-90</tspan><tspan y="91">-91</tspan><tspan y="92">-92</tspan><tspan y="93">-93</tspan><tspan y="94">-94</tspan><tspan y="95">-95</tspan><tspan y="96">-96</tspan><tspan y="97">-97</tspan><tspan y="98">-98</tspan><tspan y="99">-99</tspan><tspan y="100">-100</tspan></text></g><g id="vertical-grid-1"><line x1="-100" x2="100" y1="-999" y2="-999"></line><line x1="-100" x2="100" y1="-998" y2="-998"></line><line x1="-100" x2="100" y1="-997" y2="-997"></line><line x1="-100" x2="100" y1="-996" y2="-996"></line><line x1="-100" x2="100" y1="-994" y2="-994"></line><line x1="-100" x2="100" y1="-993" y2="-993"></line><line x1="-100" x2="100" y1="-992" y2="-992"></line><line x1="-100" x2="100" y1="-991" y2="-991"></line><line x1="-100" x2="100" y1="-989" y2="-989"></line><line x1="-100" x2="100" y1="-988" y2="-988"></line><line x1="-100" x2="100" y1="-987" y2="-987"></line><line x1="-100" x2="100" y1="-986" y2="-986"></line><line x1="-100" x2="100" y1="-984" y2="-984"></line><line x1="-100" x2="100" y1="-983" y2="-983"></line><line x1="-100" x2="100" y1="-982" y2="-982"></line><line x1="-100" x2="100" y1="-981" y2="-981"></line><line x1="-100" x2="100" y1="-979" y2="-979"></line><line x1="-100" x2="100" y1="-978" y2="-978"></line><line x1="-100" x2="100" y1="-977" y2="-977"></line><line x1="-100" x2="100" y1="-976" y2="-976"></line><line x1="-100" x2="100" y1="-974" y2="-974"></line><line x1="-100" x2="100" y1="-973" y2="-973"></line><line x1="-100" x2="100" y1="-972" y2="-972"></line><line x1="-100" x2="100" y1="-971" y2="-971"></line><line x1="-100" x2="100" y1="-969" y2="-969"></line><line x1="-100" x2="100" y1="-968" y2="-968"></line><line x1="-100" x2="100" y1="-967" y2="-967"></line><line x1="-100" x2="100" y1="-966" y2="-966"></line><line x1="-100" x2="100" y1="-964" y2="-964"></line><line x1="-100" x2="100" y1="-963" y2="-963"></line><line x1="-100" x2="100" y1="-962" y2="-962"></line><line x1="-100" x2="100" y1="-961" y2="-961"></line><line x1="-100" x2="100" y1="-959" y2="-959"></line><line x1="-100" x2="100" y1="-958" y2="-958"></line><line x1="-100" x2="100" y1="-957" y2="-957"></line><line x1="-100" x2="100" y1="-956" y2="-956"></line><line x1="-100" x2="100" y1="-954" y2="-954"></line><line x1="-100" x2="100" y1="-953" y2="-953"></line><line x1="-100" x2="100" y1="-952" y2="-952"></line><line x1="-100" x2="100" y1="-951" y2="-951"></line><line x1="-100" x2="100" y1="-949" y2="-949"></line><line x1="-100" x2="100" y1="-948" y2="-948"></line><line x1="-100" x2="100" y1="-947" y2="-947"></line><line x1="-100" x2="100" y1="-946" y2="-946"></line><line x1="-100" x2="100" y1="-944" y2="-944"></line><line x1="-100" x2="100" y1="-943" y2="-943"></line><line x1="-100" x2="100" y1="-942" y2="-942"></line><line x1="-100" x2="100" y1="-941" y2="-941"></line><line x1="-100" x2="100" y1="-939" y2="-939"></line><line x1="-100" x2="100" y1="-938" y2="-938"></line><line x1="-100" x2="100" y1="-937" y2="-937"></line><line x1="-100" x2="100" y1="-936" y2="-936"></line><line x1="-100" x2="100" y1="-934" y2="-934"></line><line x1="-100" x2="100" y1="-933" y2="-933"></line><line x1="-100" x2="100" y1="-932" y2="-932"></line><line x1="-100" x2="100" y1="-931" y2="-931"></line><line x1="-100" x2="100" y1="-929" y2="-929"></line><line x1="-100" x2="100" y1="-928" y2="-928"></line><line x1="-100" x2="100" y1="-927" y2="-927"></line><line x1="-100" x2="100" y1="-926" y2="-926"></line><line x1="-100" x2="100" y1="-924" y2="-924"></line><line x1="-100" x2="100" y1="-923" y2="-923"></line><line x1="-100" x2="100" y1="-922" y2="-922"></line><line x1="-100" x2="100" y1="-921" y2="-921"></line><line x1="-100" x2="100" y1="-919" y2="-919"></line><line x1="-100" x2="100" y1="-918" y2="-918"></line><line x1="-100" x2="100" y1="-917" y2="-917"></line><line x1="-100" x2="100" y1="-916" y2="-916"></line><line x1="-100" x2="100" y1="-914" y2="-914"></line><line x1="-100" x2="100" y1="-913" y2="-913"></line><line x1="-100" x2="100" y1="-912" y2="-912"></line><line x1="-100" x2="100" y1="-911" y2="-911"></line><line x1="-100" x2="100" y1="-909" y2="-909"></line><line x1="-100" x2="100" y1="-908" y2="-908"></line><line x1="-100" x2="100" y1="-907" y2="-907"></line><line x1="-100" x2="100" y1="-906" y2="-906"></line><line x1="-100" x2="100" y1="-904" y2="-904"></line><line x1="-100" x2="100" y1="-903" y2="-903"></line><line x1="-100" x2="100" y1="-902" y2="-902"></line><line x1="-100" x2="100" y1="-901" y2="-901"></line><line x1="-100" x2="100" y1="-899" y2="-899"></line><line x1="-100" x2="100" y1="-898" y2="-898"></line><line x1="-100" x2="100" y1="-897" y2="-897"></line><line x1="-100" x2="100" y1="-896" y2="-896"></line><line x1="-100" x2="100" y1="-894" y2="-894"></line><line x1="-100" x2="100" y1="-893" y2="-893"></line><line x1="-100" x2="100" y1="-892" y2="-892"></line><line x1="-100" x2="100" y1="-891" y2="-891"></line><line x1="-100" x2="100" y1="-889" y2="-889"></line><line x1="-100" x2="100" y1="-888" y2="-888"></line><line x1="-100" x2="100" y1="-887" y2="-887"></line><line x1="-100" x2="100" y1="-886" y2="-886"></line><line x1="-100" x2="100" y1="-884" y2="-884"></line><line x1="-100" x2="100" y1="-883" y2="-883"></line><line x1="-100" x2="100" y1="-882" y2="-882"></line><line x1="-100" x2="100" y1="-881" y2="-881"></line><line x1="-100" x2="100" y1="-879" y2="-879"></line><line x1="-100" x2="100" y1="-878" y2="-878"></line><line x1="-100" x2="100" y1="-877" y2="-877"></line><line x1="-100" x2="100" y1="-876" y2="-876"></line><line x1="-100" x2="100" y1="-874" y2="-874"></line><line x1="-100" x2="100" y1="-873" y2="-873"></line><line x1="-100" x2="100" y1="-872" y2="-872"></line><line x1="-100" x2="100" y1="-871" y2="-871"></line><line x1="-100" x2="100" y1="-869" y2="-869"></line><line x1="-100" x2="100" y1="-868" y2="-868"></line><line x1="-100" x2="100" y1="-867" y2="-867"></line><line x1="-100" x2="100" y1="-866" y2="-866"></line><line x1="-100" x2="100" y1="-864" y2="-864"></line><line x1="-100" x2="100" y1="-863" y2="-863"></line><line x1="-100" x2="100" y1="-862" y2="-862"></line><line x1="-100" x2="100" y1="-861" y2="-861"></line><line x1="-100" x2="100" y1="-859" y2="-859"></line><line x1="-100" x2="100" y1="-858" y2="-858"></line><line x1="-100" x2="100" y1="-857" y2="-857"></line><line x1="-100" x2="100" y1="-856" y2="-856"></line><line x1="-100" x2="100" y1="-854" y2="-854"></line><line x1="-100" x2="100" y1="-853" y2="-853"></line><line x1="-100" x2="100" y1="-852" y2="-852"></line><line x1="-100" x2="100" y1="-851" y2="-851"></line><line x1="-100" x2="100" y1="-849" y2="-849"></line><line x1="-100" x2="100" y1="-848" y2="-848"></line><line x1="-100" x2="100" y1="-847" y2="-847"></line><line x1="-100" x2="100" y1="-846" y2="-846"></line><line x1="-100" x2="100" y1="-844" y2="-844"></line><line x1="-100" x2="100" y1="-843" y2="-843"></line><line x1="-100" x2="100" y1="-842" y2="-842"></line><line x1="-100" x2="100" y1="-841" y2="-841"></line><line x1="-100" x2="100" y1="-839" y2="-839"></line><line x1="-100" x2="100" y1="-838" y2="-838"></line><line x1="-100" x2="100" y1="-837" y2="-837"></line><line x1="-100" x2="100" y1="-836" y2="-836"></line><line x1="-100" x2="100" y1="-834" y2="-834"></line><line x1="-100" x2="100" y1="-833" y2="-833"></line><line x1="-100" x2="100" y1="-832" y2="-832"></line><line x1="-100" x2="100" y1="-831" y2="-831"></line><line x1="-100" x2="100" y1="-829" y2="-829"></line><line x1="-100" x2="100" y1="-828" y2="-828"></line><line x1="-100" x2="100" y1="-827" y2="-827"></line><line x1="-100" x2="100" y1="-826" y2="-826"></line><line x1="-100" x2="100" y1="-824" y2="-824"></line><line x1="-100" x2="100" y1="-823" y2="-823"></line><line x1="-100" x2="100" y1="-822" y2="-822"></line><line x1="-100" x2="100" y1="-821" y2="-821"></line><line x1="-100" x2="100" y1="-819" y2="-819"></line><line x1="-100" x2="100" y1="-818" y2="-818"></line><line x1="-100" x2="100" y1="-817" y2="-817"></line><line x1="-100" x2="100" y1="-816" y2="-816"></line><line x1="-100" x2="100" y1="-814" y2="-814"></line><line x1="-100" x2="100" y1="-813" y2="-813"></line><line x1="-100" x2="100" y1="-812" y2="-812"></line><line x1="-100" x2="100" y1="-811" y2="-811"></line><line x1="-100" x2="100" y1="-809" y2="-809"></line><line x1="-100" x2="100" y1="-808" y2="-808"></line><line x1="-100" x2="100" y1="-807" y2="-807"></line><line x1="-100" x2="100" y1="-806" y2="-806"></line><line x1="-100" x2="100" y1="-804" y2="-804"></line><line x1="-100" x2="100" y1="-803" y2="-803"></line><line x1="-100" x2="100" y1="-802" y2="-802"></line><line x1="-100" x2="100" y1="-801" y2="-801"></line><line x1="-100" x2="100" y1="-799" y2="-799"></line><line x1="-100" x2="100" y1="-798" y2="-798"></line><line x1="-100" x2="100" y1="-797" y2="-797"></line><line x1="-100" x2="100" y1="-796" y2="-796"></line><line x1="-100" x2="100" y1="-794" y2="-794"></line><line x1="-100" x2="100" y1="-793" y2="-793"></line><line x1="-100" x2="100" y1="-792" y2="-792"></line><line x1="-100" x2="100" y1="-791" y2="-791"></line><line x1="-100" x2="100" y1="-789" y2="-789"></line><line x1="-100" x2="100" y1="-788" y2="-788"></line><line x1="-100" x2="100" y1="-787" y2="-787"></line><line x1="-100" x2="100" y1="-786" y2="-786"></line><line x1="-100" x2="100" y1="-784" y2="-784"></line><line x1="-100" x2="100" y1="-783" y2="-783"></line><line x1="-100" x2="100" y1="-782" y2="-782"></line><line x1="-100" x2="100" y1="-781" y2="-781"></line><line x1="-100" x2="100" y1="-779" y2="-779"></line><line x1="-100" x2="100" y1="-778" y2="-778"></line><line x1="-100" x2="100" y1="-777" y2="-777"></line><line x1="-100" x2="100" y1="-776" y2="-776"></line><line x1="-100" x2="100" y1="-774" y2="-774"></line><line x1="-100" x2="100" y1="-773" y2="-773"></line><line x1="-100" x2="100" y1="-772" y2="-772"></line><line x1="-100" x2="100" y1="-771" y2="-771"></line><line x1="-100" x2="100" y1="-769" y2="-769"></line><line x1="-100" x2="100" y1="-768" y2="-768"></line><line x1="-100" x2="100" y1="-767" y2="-767"></line><line x1="-100" x2="100" y1="-766" y2="-766"></line><line x1="-100" x2="100" y1="-764" y2="-764"></line><line x1="-100" x2="100" y1="-763" y2="-763"></line><line x1="-100" x2="100" y1="-762" y2="-762"></line><line x1="-100" x2="100" y1="-761" y2="-761"></line><line x1="-100" x2="100" y1="-759" y2="-759"></line><line x1="-100" x2="100" y1="-758" y2="-758"></line><line x1="-100" x2="100" y1="-757" y2="-757"></line><line x1="-100" x2="100" y1="-756" y2="-756"></line><line x1="-100" x2="100" y1="-754" y2="-754"></line><line x1="-100" x2="100" y1="-753" y2="-753"></line><line x1="-100" x2="100" y1="-752" y2="-752"></line><line x1="-100" x2="100" y1="-751" y2="-751"></line><line x1="-100" x2="100" y1="-749" y2="-749"></line><line x1="-100" x2="100" y1="-748" y2="-748"></line><line x1="-100" x2="100" y1="-747" y2="-747"></line><line x1="-100" x2="100" y1="-746" y2="-746"></line><line x1="-100" x2="100" y1="-744" y2="-744"></line><line x1="-100" x2="100" y1="-743" y2="-743"></line><line x1="-100" x2="100" y1="-742" y2="-742"></line><line x1="-100" x2="100" y1="-741" y2="-741"></line><line x1="-100" x2="100" y1="-739" y2="-739"></line><line x1="-100" x2="100" y1="-738" y2="-738"></line><line x1="-100" x2="100" y1="-737" y2="-737"></line><line x1="-100" x2="100" y1="-736" y2="-736"></line><line x1="-100" x2="100" y1="-734" y2="-734"></line><line x1="-100" x2="100" y1="-733" y2="-733"></line><line x1="-100" x2="100" y1="-732" y2="-732"></line><line x1="-100" x2="100" y1="-731" y2="-731"></line><line x1="-100" x2="100" y1="-729" y2="-729"></line><line x1="-100" x2="100" y1="-728" y2="-728"></line><line x1="-100" x2="100" y1="-727" y2="-727"></line><line x1="-100" x2="100" y1="-726" y2="-726"></line><line x1="-100" x2="100" y1="-724" y2="-724"></line><line x1="-100" x2="100" y1="-723" y2="-723"></line><line x1="-100" x2="100" y1="-722" y2="-722"></line><line x1="-100" x2="100" y1="-721" y2="-721"></line><line x1="-100" x2="100" y1="-719" y2="-719"></line><line x1="-100" x2="100" y1="-718" y2="-718"></line><line x1="-100" x2="100" y1="-717" y2="-717"></line><line x1="-100" x2="100" y1="-716" y2="-716"></line><line x1="-100" x2="100" y1="-714" y2="-714"></line><line x1="-100" x2="100" y1="-713" y2="-713"></line><line x1="-100" x2="100" y1="-712" y2="-712"></line><line x1="-100" x2="100" y1="-711" y2="-711"></line><line x1="-100" x2="100" y1="-709" y2="-709"></line><line x1="-100" x2="100" y1="-708" y2="-708"></line><line x1="-100" x2="100" y1="-707" y2="-707"></line><line x1="-100" x2="100" y1="-706" y2="-706"></line><line x1="-100" x2="100" y1="-704" y2="-704"></line><line x1="-100" x2="100" y1="-703" y2="-703"></line><line x1="-100" x2="100" y1="-702" y2="-702"></line><line x1="-100" x2="100" y1="-701" y2="-701"></line><line x1="-100" x2="100" y1="-699" y2="-699"></line><line x1="-100" x2="100" y1="-698" y2="-698"></line><line x1="-100" x2="100" y1="-697" y2="-697"></line><line x1="-100" x2="100" y1="-696" y2="-696"></line><line x1="-100" x2="100" y1="-694" y2="-694"></line><line x1="-100" x2="100" y1="-693" y2="-693"></line><line x1="-100" x2="100" y1="-692" y2="-692"></line><line x1="-100" x2="100" y1="-691" y2="-691"></line><line x1="-100" x2="100" y1="-689" y2="-689"></line><line x1="-100" x2="100" y1="-688" y2="-688"></line><line x1="-100" x2="100" y1="-687" y2="-687"></line><line x1="-100" x2="100" y1="-686" y2="-686"></line><line x1="-100" x2="100" y1="-684" y2="-684"></line><line x1="-100" x2="100" y1="-683" y2="-683"></line><line x1="-100" x2="100" y1="-682" y2="-682"></line><line x1="-100" x2="100" y1="-681" y2="-681"></line><line x1="-100" x2="100" y1="-679" y2="-679"></line><line x1="-100" x2="100" y1="-678" y2="-678"></line><line x1="-100" x2="100" y1="-677" y2="-677"></line><line x1="-100" x2="100" y1="-676" y2="-676"></line><line x1="-100" x2="100" y1="-674" y2="-674"></line><line x1="-100" x2="100" y1="-673" y2="-673"></line><line x1="-100" x2="100" y1="-672" y2="-672"></line><line x1="-100" x2="100" y1="-671" y2="-671"></line><line x1="-100" x2="100" y1="-669" y2="-669"></line><line x1="-100" x2="100" y1="-668" y2="-668"></line><line x1="-100" x2="100" y1="-667" y2="-667"></line><line x1="-100" x2="100" y1="-666" y2="-666"></line><line x1="-100" x2="100" y1="-664" y2="-664"></line><line x1="-100" x2="100" y1="-663" y2="-663"></line><line x1="-100" x2="100" y1="-662" y2="-662"></line><line x1="-100" x2="100" y1="-661" y2="-661"></line><line x1="-100" x2="100" y1="-659" y2="-659"></line><line x1="-100" x2="100" y1="-658" y2="-658"></line><line x1="-100" x2="100" y1="-657" y2="-657"></line><line x1="-100" x2="100" y1="-656" y2="-656"></line><line x1="-100" x2="100" y1="-654" y2="-654"></line><line x1="-100" x2="100" y1="-653" y2="-653"></line><line x1="-100" x2="100" y1="-652" y2="-652"></line><line x1="-100" x2="100" y1="-651" y2="-651"></line><line x1="-100" x2="100" y1="-649" y2="-649"></line><line x1="-100" x2="100" y1="-648" y2="-648"></line><line x1="-100" x2="100" y1="-647" y2="-647"></line><line x1="-100" x2="100" y1="-646" y2="-646"></line><line x1="-100" x2="100" y1="-644" y2="-644"></line><line x1="-100" x2="100" y1="-643" y2="-643"></line><line x1="-100" x2="100" y1="-642" y2="-642"></line><line x1="-100" x2="100" y1="-641" y2="-641"></line><line x1="-100" x2="100" y1="-639" y2="-639"></line><line x1="-100" x2="100" y1="-638" y2="-638"></line><line x1="-100" x2="100" y1="-637" y2="-637"></line><line x1="-100" x2="100" y1="-636" y2="-636"></line><line x1="-100" x2="100" y1="-634" y2="-634"></line><line x1="-100" x2="100" y1="-633" y2="-633"></line><line x1="-100" x2="100" y1="-632" y2="-632"></line><line x1="-100" x2="100" y1="-631" y2="-631"></line><line x1="-100" x2="100" y1="-629" y2="-629"></line><line x1="-100" x2="100" y1="-628" y2="-628"></line><line x1="-100" x2="100" y1="-627" y2="-627"></line><line x1="-100" x2="100" y1="-626" y2="-626"></line><line x1="-100" x2="100" y1="-624" y2="-624"></line><line x1="-100" x2="100" y1="-623" y2="-623"></line><line x1="-100" x2="100" y1="-622" y2="-622"></line><line x1="-100" x2="100" y1="-621" y2="-621"></line><line x1="-100" x2="100" y1="-619" y2="-619"></line><line x1="-100" x2="100" y1="-618" y2="-618"></line><line x1="-100" x2="100" y1="-617" y2="-617"></line><line x1="-100" x2="100" y1="-616" y2="-616"></line><line x1="-100" x2="100" y1="-614" y2="-614"></line><line x1="-100" x2="100" y1="-613" y2="-613"></line><line x1="-100" x2="100" y1="-612" y2="-612"></line><line x1="-100" x2="100" y1="-611" y2="-611"></line><line x1="-100" x2="100" y1="-609" y2="-609"></line><line x1="-100" x2="100" y1="-608" y2="-608"></line><line x1="-100" x2="100" y1="-607" y2="-607"></line><line x1="-100" x2="100" y1="-606" y2="-606"></line><line x1="-100" x2="100" y1="-604" y2="-604"></line><line x1="-100" x2="100" y1="-603" y2="-603"></line><line x1="-100" x2="100" y1="-602" y2="-602"></line><line x1="-100" x2="100" y1="-601" y2="-601"></line><line x1="-100" x2="100" y1="-599" y2="-599"></line><line x1="-100" x2="100" y1="-598" y2="-598"></line><line x1="-100" x2="100" y1="-597" y2="-597"></line><line x1="-100" x2="100" y1="-596" y2="-596"></line><line x1="-100" x2="100" y1="-594" y2="-594"></line><line x1="-100" x2="100" y1="-593" y2="-593"></line><line x1="-100" x2="100" y1="-592" y2="-592"></line><line x1="-100" x2="100" y1="-591" y2="-591"></line><line x1="-100" x2="100" y1="-589" y2="-589"></line><line x1="-100" x2="100" y1="-588" y2="-588"></line><line x1="-100" x2="100" y1="-587" y2="-587"></line><line x1="-100" x2="100" y1="-586" y2="-586"></line><line x1="-100" x2="100" y1="-584" y2="-584"></line><line x1="-100" x2="100" y1="-583" y2="-583"></line><line x1="-100" x2="100" y1="-582" y2="-582"></line><line x1="-100" x2="100" y1="-581" y2="-581"></line><line x1="-100" x2="100" y1="-579" y2="-579"></line><line x1="-100" x2="100" y1="-578" y2="-578"></line><line x1="-100" x2="100" y1="-577" y2="-577"></line><line x1="-100" x2="100" y1="-576" y2="-576"></line><line x1="-100" x2="100" y1="-574" y2="-574"></line><line x1="-100" x2="100" y1="-573" y2="-573"></line><line x1="-100" x2="100" y1="-572" y2="-572"></line><line x1="-100" x2="100" y1="-571" y2="-571"></line><line x1="-100" x2="100" y1="-569" y2="-569"></line><line x1="-100" x2="100" y1="-568" y2="-568"></line><line x1="-100" x2="100" y1="-567" y2="-567"></line><line x1="-100" x2="100" y1="-566" y2="-566"></line><line x1="-100" x2="100" y1="-564" y2="-564"></line><line x1="-100" x2="100" y1="-563" y2="-563"></line><line x1="-100" x2="100" y1="-562" y2="-562"></line><line x1="-100" x2="100" y1="-561" y2="-561"></line><line x1="-100" x2="100" y1="-559" y2="-559"></line><line x1="-100" x2="100" y1="-558" y2="-558"></line><line x1="-100" x2="100" y1="-557" y2="-557"></line><line x1="-100" x2="100" y1="-556" y2="-556"></line><line x1="-100" x2="100" y1="-554" y2="-554"></line><line x1="-100" x2="100" y1="-553" y2="-553"></line><line x1="-100" x2="100" y1="-552" y2="-552"></line><line x1="-100" x2="100" y1="-551" y2="-551"></line><line x1="-100" x2="100" y1="-549" y2="-549"></line><line x1="-100" x2="100" y1="-548" y2="-548"></line><line x1="-100" x2="100" y1="-547" y2="-547"></line><line x1="-100" x2="100" y1="-546" y2="-546"></line><line x1="-100" x2="100" y1="-544" y2="-544"></line><line x1="-100" x2="100" y1="-543" y2="-543"></line><line x1="-100" x2="100" y1="-542" y2="-542"></line><line x1="-100" x2="100" y1="-541" y2="-541"></line><line x1="-100" x2="100" y1="-539" y2="-539"></line><line x1="-100" x2="100" y1="-538" y2="-538"></line><line x1="-100" x2="100" y1="-537" y2="-537"></line><line x1="-100" x2="100" y1="-536" y2="-536"></line><line x1="-100" x2="100" y1="-534" y2="-534"></line><line x1="-100" x2="100" y1="-533" y2="-533"></line><line x1="-100" x2="100" y1="-532" y2="-532"></line><line x1="-100" x2="100" y1="-531" y2="-531"></line><line x1="-100" x2="100" y1="-529" y2="-529"></line><line x1="-100" x2="100" y1="-528" y2="-528"></line><line x1="-100" x2="100" y1="-527" y2="-527"></line><line x1="-100" x2="100" y1="-526" y2="-526"></line><line x1="-100" x2="100" y1="-524" y2="-524"></line><line x1="-100" x2="100" y1="-523" y2="-523"></line><line x1="-100" x2="100" y1="-522" y2="-522"></line><line x1="-100" x2="100" y1="-521" y2="-521"></line><line x1="-100" x2="100" y1="-519" y2="-519"></line><line x1="-100" x2="100" y1="-518" y2="-518"></line><line x1="-100" x2="100" y1="-517" y2="-517"></line><line x1="-100" x2="100" y1="-516" y2="-516"></line><line x1="-100" x2="100" y1="-514" y2="-514"></line><line x1="-100" x2="100" y1="-513" y2="-513"></line><line x1="-100" x2="100" y1="-512" y2="-512"></line><line x1="-100" x2="100" y1="-511" y2="-511"></line><line x1="-100" x2="100" y1="-509" y2="-509"></line><line x1="-100" x2="100" y1="-508" y2="-508"></line><line x1="-100" x2="100" y1="-507" y2="-507"></line><line x1="-100" x2="100" y1="-506" y2="-506"></line><line x1="-100" x2="100" y1="-504" y2="-504"></line><line x1="-100" x2="100" y1="-503" y2="-503"></line><line x1="-100" x2="100" y1="-502" y2="-502"></line><line x1="-100" x2="100" y1="-501" y2="-501"></line><line x1="-100" x2="100" y1="-499" y2="-499"></line><line x1="-100" x2="100" y1="-498" y2="-498"></line><line x1="-100" x2="100" y1="-497" y2="-497"></line><line x1="-100" x2="100" y1="-496" y2="-496"></line><line x1="-100" x2="100" y1="-494" y2="-494"></line><line x1="-100" x2="100" y1="-493" y2="-493"></line><line x1="-100" x2="100" y1="-492" y2="-492"></line><line x1="-100" x2="100" y1="-491" y2="-491"></line><line x1="-100" x2="100" y1="-489" y2="-489"></line><line x1="-100" x2="100" y1="-488" y2="-488"></line><line x1="-100" x2="100" y1="-487" y2="-487"></line><line x1="-100" x2="100" y1="-486" y2="-486"></line><line x1="-100" x2="100" y1="-484" y2="-484"></line><line x1="-100" x2="100" y1="-483" y2="-483"></line><line x1="-100" x2="100" y1="-482" y2="-482"></line><line x1="-100" x2="100" y1="-481" y2="-481"></line><line x1="-100" x2="100" y1="-479" y2="-479"></line><line x1="-100" x2="100" y1="-478" y2="-478"></line><line x1="-100" x2="100" y1="-477" y2="-477"></line><line x1="-100" x2="100" y1="-476" y2="-476"></line><line x1="-100" x2="100" y1="-474" y2="-474"></line><line x1="-100" x2="100" y1="-473" y2="-473"></line><line x1="-100" x2="100" y1="-472" y2="-472"></line><line x1="-100" x2="100" y1="-471" y2="-471"></line><line x1="-100" x2="100" y1="-469" y2="-469"></line><line x1="-100" x2="100" y1="-468" y2="-468"></line><line x1="-100" x2="100" y1="-467" y2="-467"></line><line x1="-100" x2="100" y1="-466" y2="-466"></line><line x1="-100" x2="100" y1="-464" y2="-464"></line><line x1="-100" x2="100" y1="-463" y2="-463"></line><line x1="-100" x2="100" y1="-462" y2="-462"></line><line x1="-100" x2="100" y1="-461" y2="-461"></line><line x1="-100" x2="100" y1="-459" y2="-459"></line><line x1="-100" x2="100" y1="-458" y2="-458"></line><line x1="-100" x2="100" y1="-457" y2="-457"></line><line x1="-100" x2="100" y1="-456" y2="-456"></line><line x1="-100" x2="100" y1="-454" y2="-454"></line><line x1="-100" x2="100" y1="-453" y2="-453"></line><line x1="-100" x2="100" y1="-452" y2="-452"></line><line x1="-100" x2="100" y1="-451" y2="-451"></line><line x1="-100" x2="100" y1="-449" y2="-449"></line><line x1="-100" x2="100" y1="-448" y2="-448"></line><line x1="-100" x2="100" y1="-447" y2="-447"></line><line x1="-100" x2="100" y1="-446" y2="-446"></line><line x1="-100" x2="100" y1="-444" y2="-444"></line><line x1="-100" x2="100" y1="-443" y2="-443"></line><line x1="-100" x2="100" y1="-442" y2="-442"></line><line x1="-100" x2="100" y1="-441" y2="-441"></line><line x1="-100" x2="100" y1="-439" y2="-439"></line><line x1="-100" x2="100" y1="-438" y2="-438"></line><line x1="-100" x2="100" y1="-437" y2="-437"></line><line x1="-100" x2="100" y1="-436" y2="-436"></line><line x1="-100" x2="100" y1="-434" y2="-434"></line><line x1="-100" x2="100" y1="-433" y2="-433"></line><line x1="-100" x2="100" y1="-432" y2="-432"></line><line x1="-100" x2="100" y1="-431" y2="-431"></line><line x1="-100" x2="100" y1="-429" y2="-429"></line><line x1="-100" x2="100" y1="-428" y2="-428"></line><line x1="-100" x2="100" y1="-427" y2="-427"></line><line x1="-100" x2="100" y1="-426" y2="-426"></line><line x1="-100" x2="100" y1="-424" y2="-424"></line><line x1="-100" x2="100" y1="-423" y2="-423"></line><line x1="-100" x2="100" y1="-422" y2="-422"></line><line x1="-100" x2="100" y1="-421" y2="-421"></line><line x1="-100" x2="100" y1="-419" y2="-419"></line><line x1="-100" x2="100" y1="-418" y2="-418"></line><line x1="-100" x2="100" y1="-417" y2="-417"></line><line x1="-100" x2="100" y1="-416" y2="-416"></line><line x1="-100" x2="100" y1="-414" y2="-414"></line><line x1="-100" x2="100" y1="-413" y2="-413"></line><line x1="-100" x2="100" y1="-412" y2="-412"></line><line x1="-100" x2="100" y1="-411" y2="-411"></line><line x1="-100" x2="100" y1="-409" y2="-409"></line><line x1="-100" x2="100" y1="-408" y2="-408"></line><line x1="-100" x2="100" y1="-407" y2="-407"></line><line x1="-100" x2="100" y1="-406" y2="-406"></line><line x1="-100" x2="100" y1="-404" y2="-404"></line><line x1="-100" x2="100" y1="-403" y2="-403"></line><line x1="-100" x2="100" y1="-402" y2="-402"></line><line x1="-100" x2="100" y1="-401" y2="-401"></line><line x1="-100" x2="100" y1="-399" y2="-399"></line><line x1="-100" x2="100" y1="-398" y2="-398"></line><line x1="-100" x2="100" y1="-397" y2="-397"></line><line x1="-100" x2="100" y1="-396" y2="-396"></line><line x1="-100" x2="100" y1="-394" y2="-394"></line><line x1="-100" x2="100" y1="-393" y2="-393"></line><line x1="-100" x2="100" y1="-392" y2="-392"></line><line x1="-100" x2="100" y1="-391" y2="-391"></line><line x1="-100" x2="100" y1="-389" y2="-389"></line><line x1="-100" x2="100" y1="-388" y2="-388"></line><line x1="-100" x2="100" y1="-387" y2="-387"></line><line x1="-100" x2="100" y1="-386" y2="-386"></line><line x1="-100" x2="100" y1="-384" y2="-384"></line><line x1="-100" x2="100" y1="-383" y2="-383"></line><line x1="-100" x2="100" y1="-382" y2="-382"></line><line x1="-100" x2="100" y1="-381" y2="-381"></line><line x1="-100" x2="100" y1="-379" y2="-379"></line><line x1="-100" x2="100" y1="-378" y2="-378"></line><line x1="-100" x2="100" y1="-377" y2="-377"></line><line x1="-100" x2="100" y1="-376" y2="-376"></line><line x1="-100" x2="100" y1="-374" y2="-374"></line><line x1="-100" x2="100" y1="-373" y2="-373"></line><line x1="-100" x2="100" y1="-372" y2="-372"></line><line x1="-100" x2="100" y1="-371" y2="-371"></line><line x1="-100" x2="100" y1="-369" y2="-369"></line><line x1="-100" x2="100" y1="-368" y2="-368"></line><line x1="-100" x2="100" y1="-367" y2="-367"></line><line x1="-100" x2="100" y1="-366" y2="-366"></line><line x1="-100" x2="100" y1="-364" y2="-364"></line><line x1="-100" x2="100" y1="-363" y2="-363"></line><line x1="-100" x2="100" y1="-362" y2="-362"></line><line x1="-100" x2="100" y1="-361" y2="-361"></line><line x1="-100" x2="100" y1="-359" y2="-359"></line><line x1="-100" x2="100" y1="-358" y2="-358"></line><line x1="-100" x2="100" y1="-357" y2="-357"></line><line x1="-100" x2="100" y1="-356" y2="-356"></line><line x1="-100" x2="100" y1="-354" y2="-354"></line><line x1="-100" x2="100" y1="-353" y2="-353"></line><line x1="-100" x2="100" y1="-352" y2="-352"></line><line x1="-100" x2="100" y1="-351" y2="-351"></line><line x1="-100" x2="100" y1="-349" y2="-349"></line><line x1="-100" x2="100" y1="-348" y2="-348"></line><line x1="-100" x2="100" y1="-347" y2="-347"></line><line x1="-100" x2="100" y1="-346" y2="-346"></line><line x1="-100" x2="100" y1="-344" y2="-344"></line><line x1="-100" x2="100" y1="-343" y2="-343"></line><line x1="-100" x2="100" y1="-342" y2="-342"></line><line x1="-100" x2="100" y1="-341" y2="-341"></line><line x1="-100" x2="100" y1="-339" y2="-339"></line><line x1="-100" x2="100" y1="-338" y2="-338"></line><line x1="-100" x2="100" y1="-337" y2="-337"></line><line x1="-100" x2="100" y1="-336" y2="-336"></line><line x1="-100" x2="100" y1="-334" y2="-334"></line><line x1="-100" x2="100" y1="-333" y2="-333"></line><line x1="-100" x2="100" y1="-332" y2="-332"></line><line x1="-100" x2="100" y1="-331" y2="-331"></line><line x1="-100" x2="100" y1="-329" y2="-329"></line><line x1="-100" x2="100" y1="-328" y2="-328"></line><line x1="-100" x2="100" y1="-327" y2="-327"></line><line x1="-100" x2="100" y1="-326" y2="-326"></line><line x1="-100" x2="100" y1="-324" y2="-324"></line><line x1="-100" x2="100" y1="-323" y2="-323"></line><line x1="-100" x2="100" y1="-322" y2="-322"></line><line x1="-100" x2="100" y1="-321" y2="-321"></line><line x1="-100" x2="100" y1="-319" y2="-319"></line><line x1="-100" x2="100" y1="-318" y2="-318"></line><line x1="-100" x2="100" y1="-317" y2="-317"></line><line x1="-100" x2="100" y1="-316" y2="-316"></line><line x1="-100" x2="100" y1="-314" y2="-314"></line><line x1="-100" x2="100" y1="-313" y2="-313"></line><line x1="-100" x2="100" y1="-312" y2="-312"></line><line x1="-100" x2="100" y1="-311" y2="-311"></line><line x1="-100" x2="100" y1="-309" y2="-309"></line><line x1="-100" x2="100" y1="-308" y2="-308"></line><line x1="-100" x2="100" y1="-307" y2="-307"></line><line x1="-100" x2="100" y1="-306" y2="-306"></line><line x1="-100" x2="100" y1="-304" y2="-304"></line><line x1="-100" x2="100" y1="-303" y2="-303"></line><line x1="-100" x2="100" y1="-302" y2="-302"></line><line x1="-100" x2="100" y1="-301" y2="-301"></line><line x1="-100" x2="100" y1="-299" y2="-299"></line><line x1="-100" x2="100" y1="-298" y2="-298"></line><line x1="-100" x2="100" y1="-297" y2="-297"></line><line x1="-100" x2="100" y1="-296" y2="-296"></line><line x1="-100" x2="100" y1="-294" y2="-294"></line><line x1="-100" x2="100" y1="-293" y2="-293"></line><line x1="-100" x2="100" y1="-292" y2="-292"></line><line x1="-100" x2="100" y1="-291" y2="-291"></line><line x1="-100" x2="100" y1="-289" y2="-289"></line><line x1="-100" x2="100" y1="-288" y2="-288"></line><line x1="-100" x2="100" y1="-287" y2="-287"></line><line x1="-100" x2="100" y1="-286" y2="-286"></line><line x1="-100" x2="100" y1="-284" y2="-284"></line><line x1="-100" x2="100" y1="-283" y2="-283"></line><line x1="-100" x2="100" y1="-282" y2="-282"></line><line x1="-100" x2="100" y1="-281" y2="-281"></line><line x1="-100" x2="100" y1="-279" y2="-279"></line><line x1="-100" x2="100" y1="-278" y2="-278"></line><line x1="-100" x2="100" y1="-277" y2="-277"></line><line x1="-100" x2="100" y1="-276" y2="-276"></line><line x1="-100" x2="100" y1="-274" y2="-274"></line><line x1="-100" x2="100" y1="-273" y2="-273"></line><line x1="-100" x2="100" y1="-272" y2="-272"></line><line x1="-100" x2="100" y1="-271" y2="-271"></line><line x1="-100" x2="100" y1="-269" y2="-269"></line><line x1="-100" x2="100" y1="-268" y2="-268"></line><line x1="-100" x2="100" y1="-267" y2="-267"></line><line x1="-100" x2="100" y1="-266" y2="-266"></line><line x1="-100" x2="100" y1="-264" y2="-264"></line><line x1="-100" x2="100" y1="-263" y2="-263"></line><line x1="-100" x2="100" y1="-262" y2="-262"></line><line x1="-100" x2="100" y1="-261" y2="-261"></line><line x1="-100" x2="100" y1="-259" y2="-259"></line><line x1="-100" x2="100" y1="-258" y2="-258"></line><line x1="-100" x2="100" y1="-257" y2="-257"></line><line x1="-100" x2="100" y1="-256" y2="-256"></line><line x1="-100" x2="100" y1="-254" y2="-254"></line><line x1="-100" x2="100" y1="-253" y2="-253"></line><line x1="-100" x2="100" y1="-252" y2="-252"></line><line x1="-100" x2="100" y1="-251" y2="-251"></line><line x1="-100" x2="100" y1="-249" y2="-249"></line><line x1="-100" x2="100" y1="-248" y2="-248"></line><line x1="-100" x2="100" y1="-247" y2="-247"></line><line x1="-100" x2="100" y1="-246" y2="-246"></line><line x1="-100" x2="100" y1="-244" y2="-244"></line><line x1="-100" x2="100" y1="-243" y2="-243"></line><line x1="-100" x2="100" y1="-242" y2="-242"></line><line x1="-100" x2="100" y1="-241" y2="-241"></line><line x1="-100" x2="100" y1="-239" y2="-239"></line><line x1="-100" x2="100" y1="-238" y2="-238"></line><line x1="-100" x2="100" y1="-237" y2="-237"></line><line x1="-100" x2="100" y1="-236" y2="-236"></line><line x1="-100" x2="100" y1="-234" y2="-234"></line><line x1="-100" x2="100" y1="-233" y2="-233"></line><line x1="-100" x2="100" y1="-232" y2="-232"></line><line x1="-100" x2="100" y1="-231" y2="-231"></line><line x1="-100" x2="100" y1="-229" y2="-229"></line><line x1="-100" x2="100" y1="-228" y2="-228"></line><line x1="-100" x2="100" y1="-227" y2="-227"></line><line x1="-100" x2="100" y1="-226" y2="-226"></line><line x1="-100" x2="100" y1="-224" y2="-224"></line><line x1="-100" x2="100" y1="-223" y2="-223"></line><line x1="-100" x2="100" y1="-222" y2="-222"></line><line x1="-100" x2="100" y1="-221" y2="-221"></line><line x1="-100" x2="100" y1="-219" y2="-219"></line><line x1="-100" x2="100" y1="-218" y2="-218"></line><line x1="-100" x2="100" y1="-217" y2="-217"></line><line x1="-100" x2="100" y1="-216" y2="-216"></line><line x1="-100" x2="100" y1="-214" y2="-214"></line><line x1="-100" x2="100" y1="-213" y2="-213"></line><line x1="-100" x2="100" y1="-212" y2="-212"></line><line x1="-100" x2="100" y1="-211" y2="-211"></line><line x1="-100" x2="100" y1="-209" y2="-209"></line><line x1="-100" x2="100" y1="-208" y2="-208"></line><line x1="-100" x2="100" y1="-207" y2="-207"></line><line x1="-100" x2="100" y1="-206" y2="-206"></line><line x1="-100" x2="100" y1="-204" y2="-204"></line><line x1="-100" x2="100" y1="-203" y2="-203"></line><line x1="-100" x2="100" y1="-202" y2="-202"></line><line x1="-100" x2="100" y1="-201" y2="-201"></line><line x1="-100" x2="100" y1="-199" y2="-199"></line><line x1="-100" x2="100" y1="-198" y2="-198"></line><line x1="-100" x2="100" y1="-197" y2="-197"></line><line x1="-100" x2="100" y1="-196" y2="-196"></line><line x1="-100" x2="100" y1="-194" y2="-194"></line><line x1="-100" x2="100" y1="-193" y2="-193"></line><line x1="-100" x2="100" y1="-192" y2="-192"></line><line x1="-100" x2="100" y1="-191" y2="-191"></line><line x1="-100" x2="100" y1="-189" y2="-189"></line><line x1="-100" x2="100" y1="-188" y2="-188"></line><line x1="-100" x2="100" y1="-187" y2="-187"></line><line x1="-100" x2="100" y1="-186" y2="-186"></line><line x1="-100" x2="100" y1="-184" y2="-184"></line><line x1="-100" x2="100" y1="-183" y2="-183"></line><line x1="-100" x2="100" y1="-182" y2="-182"></line><line x1="-100" x2="100" y1="-181" y2="-181"></line><line x1="-100" x2="100" y1="-179" y2="-179"></line><line x1="-100" x2="100" y1="-178" y2="-178"></line><line x1="-100" x2="100" y1="-177" y2="-177"></line><line x1="-100" x2="100" y1="-176" y2="-176"></line><line x1="-100" x2="100" y1="-174" y2="-174"></line><line x1="-100" x2="100" y1="-173" y2="-173"></line><line x1="-100" x2="100" y1="-172" y2="-172"></line><line x1="-100" x2="100" y1="-171" y2="-171"></line><line x1="-100" x2="100" y1="-169" y2="-169"></line><line x1="-100" x2="100" y1="-168" y2="-168"></line><line x1="-100" x2="100" y1="-167" y2="-167"></line><line x1="-100" x2="100" y1="-166" y2="-166"></line><line x1="-100" x2="100" y1="-164" y2="-164"></line><line x1="-100" x2="100" y1="-163" y2="-163"></line><line x1="-100" x2="100" y1="-162" y2="-162"></line><line x1="-100" x2="100" y1="-161" y2="-161"></line><line x1="-100" x2="100" y1="-159" y2="-159"></line><line x1="-100" x2="100" y1="-158" y2="-158"></line><line x1="-100" x2="100" y1="-157" y2="-157"></line><line x1="-100" x2="100" y1="-156" y2="-156"></line><line x1="-100" x2="100" y1="-154" y2="-154"></line><line x1="-100" x2="100" y1="-153" y2="-153"></line><line x1="-100" x2="100" y1="-152" y2="-152"></line><line x1="-100" x2="100" y1="-151" y2="-151"></line><line x1="-100" x2="100" y1="-149" y2="-149"></line><line x1="-100" x2="100" y1="-148" y2="-148"></line><line x1="-100" x2="100" y1="-147" y2="-147"></line><line x1="-100" x2="100" y1="-146" y2="-146"></line><line x1="-100" x2="100" y1="-144" y2="-144"></line><line x1="-100" x2="100" y1="-143" y2="-143"></line><line x1="-100" x2="100" y1="-142" y2="-142"></line><line x1="-100" x2="100" y1="-141" y2="-141"></line><line x1="-100" x2="100" y1="-139" y2="-139"></line><line x1="-100" x2="100" y1="-138" y2="-138"></line><line x1="-100" x2="100" y1="-137" y2="-137"></line><line x1="-100" x2="100" y1="-136" y2="-136"></line><line x1="-100" x2="100" y1="-134" y2="-134"></line><line x1="-100" x2="100" y1="-133" y2="-133"></line><line x1="-100" x2="100" y1="-132" y2="-132"></line><line x1="-100" x2="100" y1="-131" y2="-131"></line><line x1="-100" x2="100" y1="-129" y2="-129"></line><line x1="-100" x2="100" y1="-128" y2="-128"></line><line x1="-100" x2="100" y1="-127" y2="-127"></line><line x1="-100" x2="100" y1="-126" y2="-126"></line><line x1="-100" x2="100" y1="-124" y2="-124"></line><line x1="-100" x2="100" y1="-123" y2="-123"></line><line x1="-100" x2="100" y1="-122" y2="-122"></line><line x1="-100" x2="100" y1="-121" y2="-121"></line><line x1="-100" x2="100" y1="-119" y2="-119"></line><line x1="-100" x2="100" y1="-118" y2="-118"></line><line x1="-100" x2="100" y1="-117" y2="-117"></line><line x1="-100" x2="100" y1="-116" y2="-116"></line><line x1="-100" x2="100" y1="-114" y2="-114"></line><line x1="-100" x2="100" y1="-113" y2="-113"></line><line x1="-100" x2="100" y1="-112" y2="-112"></line><line x1="-100" x2="100" y1="-111" y2="-111"></line><line x1="-100" x2="100" y1="-109" y2="-109"></line><line x1="-100" x2="100" y1="-108" y2="-108"></line><line x1="-100" x2="100" y1="-107" y2="-107"></line><line x1="-100" x2="100" y1="-106" y2="-106"></line><line x1="-100" x2="100" y1="-104" y2="-104"></line><line x1="-100" x2="100" y1="-103" y2="-103"></line><line x1="-100" x2="100" y1="-102" y2="-102"></line><line x1="-100" x2="100" y1="-101" y2="-101"></line><line x1="-100" x2="100" y1="-99" y2="-99"></line><line x1="-100" x2="100" y1="-98" y2="-98"></line><line x1="-100" x2="100" y1="-97" y2="-97"></line><line x1="-100" x2="100" y1="-96" y2="-96"></line><line x1="-100" x2="100" y1="-94" y2="-94"></line><line x1="-100" x2="100" y1="-93" y2="-93"></line><line x1="-100" x2="100" y1="-92" y2="-92"></line><line x1="-100" x2="100" y1="-91" y2="-91"></line><line x1="-100" x2="100" y1="-89" y2="-89"></line><line x1="-100" x2="100" y1="-88" y2="-88"></line><line x1="-100" x2="100" y1="-87" y2="-87"></line><line x1="-100" x2="100" y1="-86" y2="-86"></line><line x1="-100" x2="100" y1="-84" y2="-84"></line><line x1="-100" x2="100" y1="-83" y2="-83"></line><line x1="-100" x2="100" y1="-82" y2="-82"></line><line x1="-100" x2="100" y1="-81" y2="-81"></line><line x1="-100" x2="100" y1="-79" y2="-79"></line><line x1="-100" x2="100" y1="-78" y2="-78"></line><line x1="-100" x2="100" y1="-77" y2="-77"></line><line x1="-100" x2="100" y1="-76" y2="-76"></line><line x1="-100" x2="100" y1="-74" y2="-74"></line><line x1="-100" x2="100" y1="-73" y2="-73"></line><line x1="-100" x2="100" y1="-72" y2="-72"></line><line x1="-100" x2="100" y1="-71" y2="-71"></line><line x1="-100" x2="100" y1="-69" y2="-69"></line><line x1="-100" x2="100" y1="-68" y2="-68"></line><line x1="-100" x2="100" y1="-67" y2="-67"></line><line x1="-100" x2="100" y1="-66" y2="-66"></line><line x1="-100" x2="100" y1="-64" y2="-64"></line><line x1="-100" x2="100" y1="-63" y2="-63"></line><line x1="-100" x2="100" y1="-62" y2="-62"></line><line x1="-100" x2="100" y1="-61" y2="-61"></line><line x1="-100" x2="100" y1="-59" y2="-59"></line><line x1="-100" x2="100" y1="-58" y2="-58"></line><line x1="-100" x2="100" y1="-57" y2="-57"></line><line x1="-100" x2="100" y1="-56" y2="-56"></line><line x1="-100" x2="100" y1="-54" y2="-54"></line><line x1="-100" x2="100" y1="-53" y2="-53"></line><line x1="-100" x2="100" y1="-52" y2="-52"></line><line x1="-100" x2="100" y1="-51" y2="-51"></line><line x1="-100" x2="100" y1="-49" y2="-49"></line><line x1="-100" x2="100" y1="-48" y2="-48"></line><line x1="-100" x2="100" y1="-47" y2="-47"></line><line x1="-100" x2="100" y1="-46" y2="-46"></line><line x1="-100" x2="100" y1="-44" y2="-44"></line><line x1="-100" x2="100" y1="-43" y2="-43"></line><line x1="-100" x2="100" y1="-42" y2="-42"></line><line x1="-100" x2="100" y1="-41" y2="-41"></line><line x1="-100" x2="100" y1="-39" y2="-39"></line><line x1="-100" x2="100" y1="-38" y2="-38"></line><line x1="-100" x2="100" y1="-37" y2="-37"></line><line x1="-100" x2="100" y1="-36" y2="-36"></line><line x1="-100" x2="100" y1="-34" y2="-34"></line><line x1="-100" x2="100" y1="-33" y2="-33"></line><line x1="-100" x2="100" y1="-32" y2="-32"></line><line x1="-100" x2="100" y1="-31" y2="-31"></line><line x1="-100" x2="100" y1="-29" y2="-29"></line><line x1="-100" x2="100" y1="-28" y2="-28"></line><line x1="-100" x2="100" y1="-27" y2="-27"></line><line x1="-100" x2="100" y1="-26" y2="-26"></line><line x1="-100" x2="100" y1="-24" y2="-24"></line><line x1="-100" x2="100" y1="-23" y2="-23"></line><line x1="-100" x2="100" y1="-22" y2="-22"></line><line x1="-100" x2="100" y1="-21" y2="-21"></line><line x1="-100" x2="100" y1="-19" y2="-19"></line><line x1="-100" x2="100" y1="-18" y2="-18"></line><line x1="-100" x2="100" y1="-17" y2="-17"></line><line x1="-100" x2="100" y1="-16" y2="-16"></line><line x1="-100" x2="100" y1="-14" y2="-14"></line><line x1="-100" x2="100" y1="-13" y2="-13"></line><line x1="-100" x2="100" y1="-12" y2="-12"></line><line x1="-100" x2="100" y1="-11" y2="-11"></line><line x1="-100" x2="100" y1="-9" y2="-9"></line><line x1="-100" x2="100" y1="-8" y2="-8"></line><line x1="-100" x2="100" y1="-7" y2="-7"></line><line x1="-100" x2="100" y1="-6" y2="-6"></line><line x1="-100" x2="100" y1="-4" y2="-4"></line><line x1="-100" x2="100" y1="-3" y2="-3"></line><line x1="-100" x2="100" y1="-2" y2="-2"></line><line x1="-100" x2="100" y1="-1" y2="-1"></line></g><g id="vertical-grid-5"><line x1="-100" x2="100" y1="-995" y2="-995"></line><line x1="-100" x2="100" y1="-985" y2="-985"></line><line x1="-100" x2="100" y1="-975" y2="-975"></line><line x1="-100" x2="100" y1="-965" y2="-965"></line><line x1="-100" x2="100" y1="-955" y2="-955"></line><line x1="-100" x2="100" y1="-945" y2="-945"></line><line x1="-100" x2="100" y1="-935" y2="-935"></line><line x1="-100" x2="100" y1="-925" y2="-925"></line><line x1="-100" x2="100" y1="-915" y2="-915"></line><line x1="-100" x2="100" y1="-905" y2="-905"></line><line x1="-100" x2="100" y1="-895" y2="-895"></line><line x1="-100" x2="100" y1="-885" y2="-885"></line><line x1="-100" x2="100" y1="-875" y2="-875"></line><line x1="-100" x2="100" y1="-865" y2="-865"></line><line x1="-100" x2="100" y1="-855" y2="-855"></line><line x1="-100" x2="100" y1="-845" y2="-845"></line><line x1="-100" x2="100" y1="-835" y2="-835"></line><line x1="-100" x2="100" y1="-825" y2="-825"></line><line x1="-100" x2="100" y1="-815" y2="-815"></line><line x1="-100" x2="100" y1="-805" y2="-805"></line><line x1="-100" x2="100" y1="-795" y2="-795"></line><line x1="-100" x2="100" y1="-785" y2="-785"></line><line x1="-100" x2="100" y1="-775" y2="-775"></line><line x1="-100" x2="100" y1="-765" y2="-765"></line><line x1="-100" x2="100" y1="-755" y2="-755"></line><line x1="-100" x2="100" y1="-745" y2="-745"></line><line x1="-100" x2="100" y1="-735" y2="-735"></line><line x1="-100" x2="100" y1="-725" y2="-725"></line><line x1="-100" x2="100" y1="-715" y2="-715"></line><line x1="-100" x2="100" y1="-705" y2="-705"></line><line x1="-100" x2="100" y1="-695" y2="-695"></line><line x1="-100" x2="100" y1="-685" y2="-685"></line><line x1="-100" x2="100" y1="-675" y2="-675"></line><line x1="-100" x2="100" y1="-665" y2="-665"></line><line x1="-100" x2="100" y1="-655" y2="-655"></line><line x1="-100" x2="100" y1="-645" y2="-645"></line><line x1="-100" x2="100" y1="-635" y2="-635"></line><line x1="-100" x2="100" y1="-625" y2="-625"></line><line x1="-100" x2="100" y1="-615" y2="-615"></line><line x1="-100" x2="100" y1="-605" y2="-605"></line><line x1="-100" x2="100" y1="-595" y2="-595"></line><line x1="-100" x2="100" y1="-585" y2="-585"></line><line x1="-100" x2="100" y1="-575" y2="-575"></line><line x1="-100" x2="100" y1="-565" y2="-565"></line><line x1="-100" x2="100" y1="-555" y2="-555"></line><line x1="-100" x2="100" y1="-545" y2="-545"></line><line x1="-100" x2="100" y1="-535" y2="-535"></line><line x1="-100" x2="100" y1="-525" y2="-525"></line><line x1="-100" x2="100" y1="-515" y2="-515"></line><line x1="-100" x2="100" y1="-505" y2="-505"></line><line x1="-100" x2="100" y1="-495" y2="-495"></line><line x1="-100" x2="100" y1="-485" y2="-485"></line><line x1="-100" x2="100" y1="-475" y2="-475"></line><line x1="-100" x2="100" y1="-465" y2="-465"></line><line x1="-100" x2="100" y1="-455" y2="-455"></line><line x1="-100" x2="100" y1="-445" y2="-445"></line><line x1="-100" x2="100" y1="-435" y2="-435"></line><line x1="-100" x2="100" y1="-425" y2="-425"></line><line x1="-100" x2="100" y1="-415" y2="-415"></line><line x1="-100" x2="100" y1="-405" y2="-405"></line><line x1="-100" x2="100" y1="-395" y2="-395"></line><line x1="-100" x2="100" y1="-385" y2="-385"></line><line x1="-100" x2="100" y1="-375" y2="-375"></line><line x1="-100" x2="100" y1="-365" y2="-365"></line><line x1="-100" x2="100" y1="-355" y2="-355"></line><line x1="-100" x2="100" y1="-345" y2="-345"></line><line x1="-100" x2="100" y1="-335" y2="-335"></line><line x1="-100" x2="100" y1="-325" y2="-325"></line><line x1="-100" x2="100" y1="-315" y2="-315"></line><line x1="-100" x2="100" y1="-305" y2="-305"></line><line x1="-100" x2="100" y1="-295" y2="-295"></line><line x1="-100" x2="100" y1="-285" y2="-285"></line><line x1="-100" x2="100" y1="-275" y2="-275"></line><line x1="-100" x2="100" y1="-265" y2="-265"></line><line x1="-100" x2="100" y1="-255" y2="-255"></line><line x1="-100" x2="100" y1="-245" y2="-245"></line><line x1="-100" x2="100" y1="-235" y2="-235"></line><line x1="-100" x2="100" y1="-225" y2="-225"></line><line x1="-100" x2="100" y1="-215" y2="-215"></line><line x1="-100" x2="100" y1="-205" y2="-205"></line><line x1="-100" x2="100" y1="-195" y2="-195"></line><line x1="-100" x2="100" y1="-185" y2="-185"></line><line x1="-100" x2="100" y1="-175" y2="-175"></line><line x1="-100" x2="100" y1="-165" y2="-165"></line><line x1="-100" x2="100" y1="-155" y2="-155"></line><line x1="-100" x2="100" y1="-145" y2="-145"></line><line x1="-100" x2="100" y1="-135" y2="-135"></line><line x1="-100" x2="100" y1="-125" y2="-125"></line><line x1="-100" x2="100" y1="-115" y2="-115"></line><line x1="-100" x2="100" y1="-105" y2="-105"></line><line x1="-100" x2="100" y1="-95" y2="-95"></line><line x1="-100" x2="100" y1="-85" y2="-85"></line><line x1="-100" x2="100" y1="-75" y2="-75"></line><line x1="-100" x2="100" y1="-65" y2="-65"></line><line x1="-100" x2="100" y1="-55" y2="-55"></line><line x1="-100" x2="100" y1="-45" y2="-45"></line><line x1="-100" x2="100" y1="-35" y2="-35"></line><line x1="-100" x2="100" y1="-25" y2="-25"></line><line x1="-100" x2="100" y1="-15" y2="-15"></line><line x1="-100" x2="100" y1="-5" y2="-5"></line></g><g id="vertical-grid-10"><line x1="-100" x2="100" y1="-1000" y2="-1000"></line><line x1="-100" x2="100" y1="-990" y2="-990"></line><line x1="-100" x2="100" y1="-980" y2="-980"></line><line x1="-100" x2="100" y1="-970" y2="-970"></line><line x1="-100" x2="100" y1="-960" y2="-960"></line><line x1="-100" x2="100" y1="-950" y2="-950"></line><line x1="-100" x2="100" y1="-940" y2="-940"></line><line x1="-100" x2="100" y1="-930" y2="-930"></line><line x1="-100" x2="100" y1="-920" y2="-920"></line><line x1="-100" x2="100" y1="-910" y2="-910"></line><line x1="-100" x2="100" y1="-900" y2="-900"></line><line x1="-100" x2="100" y1="-890" y2="-890"></line><line x1="-100" x2="100" y1="-880" y2="-880"></line><line x1="-100" x2="100" y1="-870" y2="-870"></line><line x1="-100" x2="100" y1="-860" y2="-860"></line><line x1="-100" x2="100" y1="-850" y2="-850"></line><line x1="-100" x2="100" y1="-840" y2="-840"></line><line x1="-100" x2="100" y1="-830" y2="-830"></line><line x1="-100" x2="100" y1="-820" y2="-820"></line><line x1="-100" x2="100" y1="-810" y2="-810"></line><line x1="-100" x2="100" y1="-800" y2="-800"></line><line x1="-100" x2="100" y1="-790" y2="-790"></line><line x1="-100" x2="100" y1="-780" y2="-780"></line><line x1="-100" x2="100" y1="-770" y2="-770"></line><line x1="-100" x2="100" y1="-760" y2="-760"></line><line x1="-100" x2="100" y1="-750" y2="-750"></line><line x1="-100" x2="100" y1="-740" y2="-740"></line><line x1="-100" x2="100" y1="-730" y2="-730"></line><line x1="-100" x2="100" y1="-720" y2="-720"></line><line x1="-100" x2="100" y1="-710" y2="-710"></line><line x1="-100" x2="100" y1="-700" y2="-700"></line><line x1="-100" x2="100" y1="-690" y2="-690"></line><line x1="-100" x2="100" y1="-680" y2="-680"></line><line x1="-100" x2="100" y1="-670" y2="-670"></line><line x1="-100" x2="100" y1="-660" y2="-660"></line><line x1="-100" x2="100" y1="-650" y2="-650"></line><line x1="-100" x2="100" y1="-640" y2="-640"></line><line x1="-100" x2="100" y1="-630" y2="-630"></line><line x1="-100" x2="100" y1="-620" y2="-620"></line><line x1="-100" x2="100" y1="-610" y2="-610"></line><line x1="-100" x2="100" y1="-600" y2="-600"></line><line x1="-100" x2="100" y1="-590" y2="-590"></line><line x1="-100" x2="100" y1="-580" y2="-580"></line><line x1="-100" x2="100" y1="-570" y2="-570"></line><line x1="-100" x2="100" y1="-560" y2="-560"></line><line x1="-100" x2="100" y1="-550" y2="-550"></line><line x1="-100" x2="100" y1="-540" y2="-540"></line><line x1="-100" x2="100" y1="-530" y2="-530"></line><line x1="-100" x2="100" y1="-520" y2="-520"></line><line x1="-100" x2="100" y1="-510" y2="-510"></line><line x1="-100" x2="100" y1="-500" y2="-500"></line><line x1="-100" x2="100" y1="-490" y2="-490"></line><line x1="-100" x2="100" y1="-480" y2="-480"></line><line x1="-100" x2="100" y1="-470" y2="-470"></line><line x1="-100" x2="100" y1="-460" y2="-460"></line><line x1="-100" x2="100" y1="-450" y2="-450"></line><line x1="-100" x2="100" y1="-440" y2="-440"></line><line x1="-100" x2="100" y1="-430" y2="-430"></line><line x1="-100" x2="100" y1="-420" y2="-420"></line><line x1="-100" x2="100" y1="-410" y2="-410"></line><line x1="-100" x2="100" y1="-400" y2="-400"></line><line x1="-100" x2="100" y1="-390" y2="-390"></line><line x1="-100" x2="100" y1="-380" y2="-380"></line><line x1="-100" x2="100" y1="-370" y2="-370"></line><line x1="-100" x2="100" y1="-360" y2="-360"></line><line x1="-100" x2="100" y1="-350" y2="-350"></line><line x1="-100" x2="100" y1="-340" y2="-340"></line><line x1="-100" x2="100" y1="-330" y2="-330"></line><line x1="-100" x2="100" y1="-320" y2="-320"></line><line x1="-100" x2="100" y1="-310" y2="-310"></line><line x1="-100" x2="100" y1="-300" y2="-300"></line><line x1="-100" x2="100" y1="-290" y2="-290"></line><line x1="-100" x2="100" y1="-280" y2="-280"></line><line x1="-100" x2="100" y1="-270" y2="-270"></line><line x1="-100" x2="100" y1="-260" y2="-260"></line><line x1="-100" x2="100" y1="-250" y2="-250"></line><line x1="-100" x2="100" y1="-240" y2="-240"></line><line x1="-100" x2="100" y1="-230" y2="-230"></line><line x1="-100" x2="100" y1="-220" y2="-220"></line><line x1="-100" x2="100" y1="-210" y2="-210"></line><line x1="-100" x2="100" y1="-200" y2="-200"></line><line x1="-100" x2="100" y1="-190" y2="-190"></line><line x1="-100" x2="100" y1="-180" y2="-180"></line><line x1="-100" x2="100" y1="-170" y2="-170"></line><line x1="-100" x2="100" y1="-160" y2="-160"></line><line x1="-100" x2="100" y1="-150" y2="-150"></line><line x1="-100" x2="100" y1="-140" y2="-140"></line><line x1="-100" x2="100" y1="-130" y2="-130"></line><line x1="-100" x2="100" y1="-120" y2="-120"></line><line x1="-100" x2="100" y1="-110" y2="-110"></line><line x1="-100" x2="100" y1="-100" y2="-100"></line><line x1="-100" x2="100" y1="-90" y2="-90"></line><line x1="-100" x2="100" y1="-80" y2="-80"></line><line x1="-100" x2="100" y1="-70" y2="-70"></line><line x1="-100" x2="100" y1="-60" y2="-60"></line><line x1="-100" x2="100" y1="-50" y2="-50"></line><line x1="-100" x2="100" y1="-40" y2="-40"></line><line x1="-100" x2="100" y1="-30" y2="-30"></line><line x1="-100" x2="100" y1="-20" y2="-20"></line><line x1="-100" x2="100" y1="-10" y2="-10"></line><line x1="-100" x2="100" y1="0" y2="0"></line></g><g id="horizontal-grid-1"><line x1="-99" x2="-99" y1="-1000" y2="0"></line><line x1="-98" x2="-98" y1="-1000" y2="0"></line><line x1="-97" x2="-97" y1="-1000" y2="0"></line><line x1="-96" x2="-96" y1="-1000" y2="0"></line><line x1="-94" x2="-94" y1="-1000" y2="0"></line><line x1="-93" x2="-93" y1="-1000" y2="0"></line><line x1="-92" x2="-92" y1="-1000" y2="0"></line><line x1="-91" x2="-91" y1="-1000" y2="0"></line><line x1="-89" x2="-89" y1="-1000" y2="0"></line><line x1="-88" x2="-88" y1="-1000" y2="0"></line><line x1="-87" x2="-87" y1="-1000" y2="0"></line><line x1="-86" x2="-86" y1="-1000" y2="0"></line><line x1="-84" x2="-84" y1="-1000" y2="0"></line><line x1="-83" x2="-83" y1="-1000" y2="0"></line><line x1="-82" x2="-82" y1="-1000" y2="0"></line><line x1="-81" x2="-81" y1="-1000" y2="0"></line><line x1="-79" x2="-79" y1="-1000" y2="0"></line><line x1="-78" x2="-78" y1="-1000" y2="0"></line><line x1="-77" x2="-77" y1="-1000" y2="0"></line><line x1="-76" x2="-76" y1="-1000" y2="0"></line><line x1="-74" x2="-74" y1="-1000" y2="0"></line><line x1="-73" x2="-73" y1="-1000" y2="0"></line><line x1="-72" x2="-72" y1="-1000" y2="0"></line><line x1="-71" x2="-71" y1="-1000" y2="0"></line><line x1="-69" x2="-69" y1="-1000" y2="0"></line><line x1="-68" x2="-68" y1="-1000" y2="0"></line><line x1="-67" x2="-67" y1="-1000" y2="0"></line><line x1="-66" x2="-66" y1="-1000" y2="0"></line><line x1="-64" x2="-64" y1="-1000" y2="0"></line><line x1="-63" x2="-63" y1="-1000" y2="0"></line><line x1="-62" x2="-62" y1="-1000" y2="0"></line><line x1="-61" x2="-61" y1="-1000" y2="0"></line><line x1="-59" x2="-59" y1="-1000" y2="0"></line><line x1="-58" x2="-58" y1="-1000" y2="0"></line><line x1="-57" x2="-57" y1="-1000" y2="0"></line><line x1="-56" x2="-56" y1="-1000" y2="0"></line><line x1="-54" x2="-54" y1="-1000" y2="0"></line><line x1="-53" x2="-53" y1="-1000" y2="0"></line><line x1="-52" x2="-52" y1="-1000" y2="0"></line><line x1="-51" x2="-51" y1="-1000" y2="0"></line><line x1="-49" x2="-49" y1="-1000" y2="0"></line><line x1="-48" x2="-48" y1="-1000" y2="0"></line><line x1="-47" x2="-47" y1="-1000" y2="0"></line><line x1="-46" x2="-46" y1="-1000" y2="0"></line><line x1="-44" x2="-44" y1="-1000" y2="0"></line><line x1="-43" x2="-43" y1="-1000" y2="0"></line><line x1="-42" x2="-42" y1="-1000" y2="0"></line><line x1="-41" x2="-41" y1="-1000" y2="0"></line><line x1="-39" x2="-39" y1="-1000" y2="0"></line><line x1="-38" x2="-38" y1="-1000" y2="0"></line><line x1="-37" x2="-37" y1="-1000" y2="0"></line><line x1="-36" x2="-36" y1="-1000" y2="0"></line><line x1="-34" x2="-34" y1="-1000" y2="0"></line><line x1="-33" x2="-33" y1="-1000" y2="0"></line><line x1="-32" x2="-32" y1="-1000" y2="0"></line><line x1="-31" x2="-31" y1="-1000" y2="0"></line><line x1="-29" x2="-29" y1="-1000" y2="0"></line><line x1="-28" x2="-28" y1="-1000" y2="0"></line><line x1="-27" x2="-27" y1="-1000" y2="0"></line><line x1="-26" x2="-26" y1="-1000" y2="0"></line><line x1="-24" x2="-24" y1="-1000" y2="0"></line><line x1="-23" x2="-23" y1="-1000" y2="0"></line><line x1="-22" x2="-22" y1="-1000" y2="0"></line><line x1="-21" x2="-21" y1="-1000" y2="0"></line><line x1="-19" x2="-19" y1="-1000" y2="0"></line><line x1="-18" x2="-18" y1="-1000" y2="0"></line><line x1="-17" x2="-17" y1="-1000" y2="0"></line><line x1="-16" x2="-16" y1="-1000" y2="0"></line><line x1="-14" x2="-14" y1="-1000" y2="0"></line><line x1="-13" x2="-13" y1="-1000" y2="0"></line><line x1="-12" x2="-12" y1="-1000" y2="0"></line><line x1="-11" x2="-11" y1="-1000" y2="0"></line><line x1="-9" x2="-9" y1="-1000" y2="0"></line><line x1="-8" x2="-8" y1="-1000" y2="0"></line><line x1="-7" x2="-7" y1="-1000" y2="0"></line><line x1="-6" x2="-6" y1="-1000" y2="0"></line><line x1="-4" x2="-4" y1="-1000" y2="0"></line><line x1="-3" x2="-3" y1="-1000" y2="0"></line><line x1="-2" x2="-2" y1="-1000" y2="0"></line><line x1="-1" x2="-1" y1="-1000" y2="0"></line><line x1="1" x2="1" y1="-1000" y2="0"></line><line x1="2" x2="2" y1="-1000" y2="0"></line><line x1="3" x2="3" y1="-1000" y2="0"></line><line x1="4" x2="4" y1="-1000" y2="0"></line><line x1="6" x2="6" y1="-1000" y2="0"></line><line x1="7" x2="7" y1="-1000" y2="0"></line><line x1="8" x2="8" y1="-1000" y2="0"></line><line x1="9" x2="9" y1="-1000" y2="0"></line><line x1="11" x2="11" y1="-1000" y2="0"></line><line x1="12" x2="12" y1="-1000" y2="0"></line><line x1="13" x2="13" y1="-1000" y2="0"></line><line x1="14" x2="14" y1="-1000" y2="0"></line><line x1="16" x2="16" y1="-1000" y2="0"></line><line x1="17" x2="17" y1="-1000" y2="0"></line><line x1="18" x2="18" y1="-1000" y2="0"></line><line x1="19" x2="19" y1="-1000" y2="0"></line><line x1="21" x2="21" y1="-1000" y2="0"></line><line x1="22" x2="22" y1="-1000" y2="0"></line><line x1="23" x2="23" y1="-1000" y2="0"></line><line x1="24" x2="24" y1="-1000" y2="0"></line><line x1="26" x2="26" y1="-1000" y2="0"></line><line x1="27" x2="27" y1="-1000" y2="0"></line><line x1="28" x2="28" y1="-1000" y2="0"></line><line x1="29" x2="29" y1="-1000" y2="0"></line><line x1="31" x2="31" y1="-1000" y2="0"></line><line x1="32" x2="32" y1="-1000" y2="0"></line><line x1="33" x2="33" y1="-1000" y2="0"></line><line x1="34" x2="34" y1="-1000" y2="0"></line><line x1="36" x2="36" y1="-1000" y2="0"></line><line x1="37" x2="37" y1="-1000" y2="0"></line><line x1="38" x2="38" y1="-1000" y2="0"></line><line x1="39" x2="39" y1="-1000" y2="0"></line><line x1="41" x2="41" y1="-1000" y2="0"></line><line x1="42" x2="42" y1="-1000" y2="0"></line><line x1="43" x2="43" y1="-1000" y2="0"></line><line x1="44" x2="44" y1="-1000" y2="0"></line><line x1="46" x2="46" y1="-1000" y2="0"></line><line x1="47" x2="47" y1="-1000" y2="0"></line><line x1="48" x2="48" y1="-1000" y2="0"></line><line x1="49" x2="49" y1="-1000" y2="0"></line><line x1="51" x2="51" y1="-1000" y2="0"></line><line x1="52" x2="52" y1="-1000" y2="0"></line><line x1="53" x2="53" y1="-1000" y2="0"></line><line x1="54" x2="54" y1="-1000" y2="0"></line><line x1="56" x2="56" y1="-1000" y2="0"></line><line x1="57" x2="57" y1="-1000" y2="0"></line><line x1="58" x2="58" y1="-1000" y2="0"></line><line x1="59" x2="59" y1="-1000" y2="0"></line><line x1="61" x2="61" y1="-1000" y2="0"></line><line x1="62" x2="62" y1="-1000" y2="0"></line><line x1="63" x2="63" y1="-1000" y2="0"></line><line x1="64" x2="64" y1="-1000" y2="0"></line><line x1="66" x2="66" y1="-1000" y2="0"></line><line x1="67" x2="67" y1="-1000" y2="0"></line><line x1="68" x2="68" y1="-1000" y2="0"></line><line x1="69" x2="69" y1="-1000" y2="0"></line><line x1="71" x2="71" y1="-1000" y2="0"></line><line x1="72" x2="72" y1="-1000" y2="0"></line><line x1="73" x2="73" y1="-1000" y2="0"></line><line x1="74" x2="74" y1="-1000" y2="0"></line><line x1="76" x2="76" y1="-1000" y2="0"></line><line x1="77" x2="77" y1="-1000" y2="0"></line><line x1="78" x2="78" y1="-1000" y2="0"></line><line x1="79" x2="79" y1="-1000" y2="0"></line><line x1="81" x2="81" y1="-1000" y2="0"></line><line x1="82" x2="82" y1="-1000" y2="0"></line><line x1="83" x2="83" y1="-1000" y2="0"></line><line x1="84" x2="84" y1="-1000" y2="0"></line><line x1="86" x2="86" y1="-1000" y2="0"></line><line x1="87" x2="87" y1="-1000" y2="0"></line><line x1="88" x2="88" y1="-1000" y2="0"></line><line x1="89" x2="89" y1="-1000" y2="0"></line><line x1="91" x2="91" y1="-1000" y2="0"></line><line x1="92" x2="92" y1="-1000" y2="0"></line><line x1="93" x2="93" y1="-1000" y2="0"></line><line x1="94" x2="94" y1="-1000" y2="0"></line><line x1="96" x2="96" y1="-1000" y2="0"></line><line x1="97" x2="97" y1="-1000" y2="0"></line><line x1="98" x2="98" y1="-1000" y2="0"></line><line x1="99" x2="99" y1="-1000" y2="0"></line></g><g id="horizontal-grid-5"><line x1="-95" x2="-95" y1="-1000" y2="0"></line><line x1="-85" x2="-85" y1="-1000" y2="0"></line><line x1="-75" x2="-75" y1="-1000" y2="0"></line><line x1="-65" x2="-65" y1="-1000" y2="0"></line><line x1="-55" x2="-55" y1="-1000" y2="0"></line><line x1="-45" x2="-45" y1="-1000" y2="0"></line><line x1="-35" x2="-35" y1="-1000" y2="0"></line><line x1="-25" x2="-25" y1="-1000" y2="0"></line><line x1="-15" x2="-15" y1="-1000" y2="0"></line><line x1="-5" x2="-5" y1="-1000" y2="0"></line><line x1="5" x2="5" y1="-1000" y2="0"></line><line x1="15" x2="15" y1="-1000" y2="0"></line><line x1="25" x2="25" y1="-1000" y2="0"></line><line x1="35" x2="35" y1="-1000" y2="0"></line><line x1="45" x2="45" y1="-1000" y2="0"></line><line x1="55" x2="55" y1="-1000" y2="0"></line><line x1="65" x2="65" y1="-1000" y2="0"></line><line x1="75" x2="75" y1="-1000" y2="0"></line><line x1="85" x2="85" y1="-1000" y2="0"></line><line x1="95" x2="95" y1="-1000" y2="0"></line></g><g id="horizontal-grid-10"><line x1="-100" x2="-100" y1="-1000" y2="0"></line><line x1="-90" x2="-90" y1="-1000" y2="0"></line><line x1="-80" x2="-80" y1="-1000" y2="0"></line><line x1="-70" x2="-70" y1="-1000" y2="0"></line><line x1="-60" x2="-60" y1="-1000" y2="0"></line><line x1="-50" x2="-50" y1="-1000" y2="0"></line><line x1="-40" x2="-40" y1="-1000" y2="0"></line><line x1="-30" x2="-30" y1="-1000" y2="0"></line><line x1="-20" x2="-20" y1="-1000" y2="0"></line><line x1="-10" x2="-10" y1="-1000" y2="0"></line><line x1="0" x2="0" y1="-1000" y2="0"></line><line x1="10" x2="10" y1="-1000" y2="0"></line><line x1="20" x2="20" y1="-1000" y2="0"></line><line x1="30" x2="30" y1="-1000" y2="0"></line><line x1="40" x2="40" y1="-1000" y2="0"></line><line x1="50" x2="50" y1="-1000" y2="0"></line><line x1="60" x2="60" y1="-1000" y2="0"></line><line x1="70" x2="70" y1="-1000" y2="0"></line><line x1="80" x2="80" y1="-1000" y2="0"></line><line x1="90" x2="90" y1="-1000" y2="0"></line><line x1="100" x2="100" y1="-1000" y2="0"></line></g></svg>